<svg width="80.000000" height="80.000000" viewBox="0 0 80 80" fill="none" xmlns="http://www.w3.org/2000/svg" xmlns:xlink="http://www.w3.org/1999/xlink">
	<desc>
			Created with Pixso.
	</desc>
	<defs>
		<clipPath id="clip1_699">
			<rect id="Icon" width="80.000000" height="80.000000" transform="matrix(1 0 0 -1 0 80)" fill="white" fill-opacity="0"/>
		</clipPath>
	</defs>
	<g clip-path="url(#clip1_699)">
		<path id="Vector" d="M23.46 14.39C23.28 14.04 22.97 13.82 22.53 13.73C22.08 13.64 21.68 13.68 21.33 13.86C20.97 14.22 20.71 14.57 20.53 14.93C20.35 15.28 20.39 15.68 20.66 16.13C20.93 16.57 21.28 16.79 21.73 16.79C22.17 16.79 22.57 16.71 22.93 16.53C23.28 16.35 23.51 16.04 23.6 15.59C23.68 15.15 23.64 14.75 23.46 14.39ZM79.19 26.66L40.8 2.93C40.26 2.57 39.73 2.57 39.2 2.93L26.39 10.93C25.86 11.11 25.55 11.42 25.46 11.86C25.37 12.31 25.46 12.71 25.73 13.06C26 13.42 26.35 13.64 26.8 13.73C27.24 13.82 27.64 13.77 28 13.59L40 6.13L75.46 27.99L40 49.86L20.8 38.13L37.06 28.53C37.95 29.24 38.97 29.59 40.13 29.59C41.28 29.59 42.35 29.11 43.33 28.13C44.31 27.15 44.8 26.04 44.8 24.79C44.8 23.55 44.31 22.48 43.33 21.59C42.35 20.71 41.24 20.26 40 20.26C38.75 20.26 37.64 20.71 36.66 21.59C35.68 22.48 35.2 23.55 35.2 24.79L35.46 25.86L17.86 36.26L4.53 27.99L16.79 20.26C17.15 20.08 17.37 19.77 17.46 19.33C17.55 18.88 17.51 18.48 17.33 18.13C17.15 17.77 16.84 17.55 16.39 17.46C15.95 17.37 15.55 17.42 15.2 17.59L0.8 26.66C0.26 27.02 0 27.46 0 27.99C0 28.53 0.26 28.97 0.8 29.33L14.93 37.86L13.06 38.93C11.64 39.82 10.53 40.97 9.73 42.39C8.93 43.82 8.53 45.33 8.53 46.93L8.53 49.59C7.64 49.95 6.88 50.48 6.26 51.19C5.64 51.91 5.33 52.79 5.33 53.86L5.33 56.53C4.08 57.77 3.46 59.37 3.46 61.33L3.46 75.73C3.46 76.26 3.6 76.66 3.86 76.93C4.13 77.19 4.53 77.33 5.06 77.33L14.93 77.33C15.46 77.33 15.86 77.19 16.13 76.93C16.39 76.66 16.53 76.26 16.53 75.73L16.53 61.33C16.53 59.37 15.91 57.77 14.66 56.53L14.66 53.86C14.66 52.79 14.35 51.91 13.73 51.19C13.11 50.48 12.35 49.95 11.46 49.59L11.46 46.93C11.46 45.86 11.73 44.88 12.26 43.99C12.8 43.11 13.6 42.39 14.66 41.86L16.53 40.53L16.53 55.73C16.53 56.08 16.71 56.44 17.06 56.79C17.42 57.15 17.77 57.33 18.13 57.33C22.04 57.33 25.77 58.08 29.33 59.59C32.88 61.11 36.08 63.28 38.93 66.13C39.28 66.31 39.64 66.39 40 66.39C40.35 66.39 40.71 66.31 41.06 66.13C43.91 63.28 47.11 61.11 50.66 59.59C54.22 58.08 57.95 57.33 61.86 57.33C62.22 57.33 62.57 57.15 62.93 56.79C63.28 56.44 63.46 56.08 63.46 55.73L63.46 53.06C63.46 52.53 63.28 52.13 62.93 51.86C62.57 51.59 62.22 51.46 61.86 51.46C61.51 51.46 61.15 51.59 60.8 51.86C60.44 52.13 60.26 52.53 60.26 53.06L60.26 54.13C53.33 54.48 47.11 56.88 41.6 61.33L41.6 58.13C41.6 57.77 41.42 57.42 41.06 57.06C40.71 56.71 40.35 56.53 40 56.53C39.64 56.53 39.28 56.71 38.93 57.06C38.57 57.42 38.39 57.77 38.39 58.13L38.39 61.33C32.88 56.88 26.66 54.48 19.73 54.13L19.73 41.06L39.2 53.06C39.37 53.24 39.64 53.33 40 53.33C40.35 53.33 40.62 53.24 40.8 53.06L60.26 41.06L60.26 42.66C60.26 43.19 60.44 43.59 60.8 43.86C61.15 44.13 61.51 44.26 61.86 44.26C62.22 44.26 62.57 44.13 62.93 43.86C63.28 43.59 63.46 43.19 63.46 42.66L63.46 39.19L79.19 29.33C79.73 28.97 80 28.53 80 27.99C80 27.46 79.73 27.02 79.19 26.66ZM40 23.19C40.35 23.19 40.71 23.37 41.06 23.73C41.42 24.08 41.6 24.48 41.6 24.93C41.6 25.37 41.42 25.73 41.06 25.99C40.71 26.26 40.35 26.39 40 26.39C39.64 26.39 39.28 26.26 38.93 25.99C38.57 25.73 38.39 25.37 38.39 24.93C38.39 24.48 38.57 24.08 38.93 23.73C39.28 23.37 39.64 23.19 40 23.19ZM8.53 53.86C8.53 53.51 8.66 53.15 8.93 52.79C9.19 52.44 9.55 52.26 10 52.26C10.44 52.26 10.8 52.44 11.06 52.79C11.33 53.15 11.46 53.51 11.46 53.86L11.46 54.66L8.53 54.66L8.53 53.86ZM13.33 61.33L13.33 74.13L6.66 74.13L6.66 61.33C6.66 60.26 6.97 59.42 7.6 58.79C8.22 58.17 9.02 57.86 10 57.86C10.97 57.86 11.77 58.17 12.39 58.79C13.02 59.42 13.33 60.26 13.33 61.33ZM62.93 46.39C62.57 46.04 62.22 45.86 61.86 45.86C61.51 45.86 61.15 46.04 60.8 46.39C60.44 46.75 60.26 47.15 60.26 47.59C60.26 48.04 60.44 48.39 60.8 48.66C61.15 48.93 61.51 49.06 61.86 49.06C62.22 49.06 62.57 48.93 62.93 48.66C63.28 48.39 63.46 48.04 63.46 47.59C63.46 47.15 63.28 46.75 62.93 46.39Z" fill="#FFFFFF" fill-opacity="1.000000" fill-rule="nonzero"/>
	</g>
</svg>
