<svg width="80.000000" height="80.000000" viewBox="0 0 80 80" fill="none" xmlns="http://www.w3.org/2000/svg" xmlns:xlink="http://www.w3.org/1999/xlink">
	<desc>
			Created with Pixso.
	</desc>
	<defs>
		<clipPath id="clip1_694">
			<rect id="Icon" width="80.000000" height="80.000000" transform="matrix(1 0 0 -1 0 80)" fill="white" fill-opacity="0"/>
		</clipPath>
	</defs>
	<g clip-path="url(#clip1_694)">
		<path id="Vector" d="M78.39 61.33L76.79 61.33L76.79 22.13C76.79 19.82 76.04 17.91 74.53 16.4C73.02 14.88 71.2 14.13 69.06 14.13L64.26 14.13L64.26 10.4C64.26 8.62 63.68 7.15 62.53 6C61.37 4.84 60 4.26 58.39 4.26L38.66 4.26C36.88 4.26 35.42 4.84 34.26 6C33.11 7.15 32.53 8.62 32.53 10.4L32.53 14.13L10.93 14.13C8.79 14.13 6.97 14.88 5.46 16.4C3.95 17.91 3.2 19.82 3.2 22.13L3.2 61.33L1.6 61.33C1.06 61.33 0.66 61.51 0.39 61.86C0.13 62.22 0 62.57 0 62.93C0 66.48 1.24 69.51 3.73 72C6.22 74.48 9.24 75.73 12.79 75.73L33.06 75.73C33.42 75.73 33.73 75.6 34 75.33C34.26 75.06 34.39 74.71 34.39 74.26C34.39 73.82 34.26 73.42 34 73.06C33.73 72.71 33.42 72.53 33.06 72.53L12.79 72.53C10.48 72.53 8.39 71.77 6.53 70.26C4.66 68.75 3.55 66.84 3.2 64.53L76.79 64.53C76.44 66.84 75.33 68.75 73.46 70.26C71.6 71.77 69.51 72.53 67.2 72.53L46.93 72.53C46.57 72.53 46.26 72.71 46 73.06C45.73 73.42 45.6 73.82 45.6 74.26C45.6 74.71 45.73 75.06 46 75.33C46.26 75.6 46.57 75.73 46.93 75.73L67.2 75.73C70.75 75.73 73.77 74.48 76.26 72C78.75 69.51 80 66.48 80 62.93C80 62.57 79.86 62.22 79.6 61.86C79.33 61.51 78.93 61.33 78.39 61.33ZM35.73 10.4C35.73 9.51 36 8.8 36.53 8.26C37.06 7.73 37.77 7.46 38.66 7.46L58.39 7.46C59.11 7.46 59.77 7.73 60.39 8.26C61.02 8.8 61.33 9.51 61.33 10.4L61.33 24.8C61.33 25.51 61.02 26.17 60.39 26.8C59.77 27.42 59.11 27.73 58.39 27.73L43.73 27.73C43.2 27.73 42.84 27.82 42.66 28L40 30.4L40 29.06C40 28.71 39.86 28.4 39.6 28.13C39.33 27.86 38.88 27.73 38.26 27.73C37.64 27.73 37.06 27.42 36.53 26.8C36 26.17 35.73 25.51 35.73 24.8L35.73 10.4ZM6.13 22.13C6.13 20.71 6.62 19.55 7.6 18.66C8.57 17.77 9.68 17.33 10.93 17.33L32.53 17.33L32.53 20.53L10.93 20.53C10.57 20.53 10.22 20.66 9.86 20.93C9.51 21.2 9.33 21.6 9.33 22.13L9.33 61.33L6.13 61.33L6.13 22.13ZM18.93 61.33L18.93 60.53C18.93 58.22 19.73 56.22 21.33 54.53C22.93 52.84 24.88 52 27.2 52L28 52L28 54.93C28 55.46 28.13 55.86 28.39 56.13C28.66 56.4 29.02 56.53 29.46 56.53C29.91 56.53 30.26 56.4 30.53 56.13C30.79 55.86 30.93 55.46 30.93 54.93L30.93 52L31.73 52C34.04 52 36 52.84 37.6 54.53C39.2 56.22 40 58.22 40 60.53L40 61.33L18.93 61.33ZM33.6 44.8C33.6 45.86 33.2 46.8 32.39 47.6C31.6 48.4 30.62 48.8 29.46 48.8C28.31 48.8 27.33 48.4 26.53 47.6C25.73 46.8 25.33 45.86 25.33 44.8L25.33 43.73C25.33 42.66 25.73 41.73 26.53 40.93C27.33 40.13 28.31 39.73 29.46 39.73C30.62 39.73 31.6 40.13 32.39 40.93C33.2 41.73 33.6 42.66 33.6 43.73L33.6 44.8ZM43.2 61.33L43.2 60.53C43.2 57.86 42.44 55.51 40.93 53.46C39.42 51.42 37.42 50.04 34.93 49.33C36 48.08 36.53 46.57 36.53 44.8L36.53 43.73C36.53 41.77 35.86 40.08 34.53 38.66C33.2 37.24 31.51 36.53 29.46 36.53C27.42 36.53 25.73 37.24 24.39 38.66C23.06 40.08 22.39 41.77 22.39 43.73L22.39 44.8C22.39 46.57 22.93 48.08 24 49.33C21.51 50.04 19.51 51.42 18 53.46C16.48 55.51 15.73 57.86 15.73 60.53L15.73 61.33L12.53 61.33L12.53 23.46L32.53 23.46L32.53 24.8C32.53 26.04 32.93 27.24 33.73 28.4C34.53 29.55 35.64 30.31 37.06 30.66L37.06 34.4C37.06 34.93 37.33 35.37 37.86 35.73L38.66 35.73C39.02 35.73 39.37 35.64 39.73 35.46L44.26 30.66L58.39 30.66C60 30.66 61.37 30.08 62.53 28.93C63.68 27.77 64.26 26.4 64.26 24.8L64.26 23.46L67.46 23.46L67.46 61.33L43.2 61.33ZM70.66 61.33L70.66 22.13C70.66 21.6 70.48 21.2 70.13 20.93C69.77 20.66 69.42 20.53 69.06 20.53L64.26 20.53L64.26 17.33L69.06 17.33C70.31 17.33 71.42 17.77 72.39 18.66C73.37 19.55 73.86 20.71 73.86 22.13L73.86 61.33L70.66 61.33ZM43.46 66.93L36.53 66.93C36.17 66.93 35.82 67.11 35.46 67.46C35.11 67.82 34.93 68.22 34.93 68.66C34.93 69.11 35.11 69.46 35.46 69.73C35.82 70 36.17 70.13 36.53 70.13L43.46 70.13C44 70.13 44.39 70 44.66 69.73C44.93 69.46 45.06 69.11 45.06 68.66C45.06 68.22 44.93 67.82 44.66 67.46C44.39 67.11 44 66.93 43.46 66.93ZM44.79 23.46C45.33 23.82 45.86 24 46.39 24C46.93 24 47.37 23.82 47.73 23.46L53.6 20C54.66 19.46 55.2 18.62 55.2 17.46C55.2 16.31 54.66 15.46 53.6 14.93L47.73 11.46C46.84 10.93 45.86 10.93 44.79 11.46C43.73 12 43.2 12.88 43.2 14.13L43.2 20.8C43.2 22.04 43.73 22.93 44.79 23.46ZM46.39 14.4L52 17.6L46.39 20.53L46.39 14.4ZM40 72.53C39.64 72.53 39.28 72.71 38.93 73.06C38.57 73.42 38.39 73.82 38.39 74.26C38.39 74.71 38.57 75.06 38.93 75.33C39.28 75.6 39.64 75.73 40 75.73C40.35 75.73 40.71 75.6 41.06 75.33C41.42 75.06 41.6 74.71 41.6 74.26C41.6 73.82 41.42 73.42 41.06 73.06C40.71 72.71 40.35 72.53 40 72.53Z" fill="#FFFFFF" fill-opacity="1.000000" fill-rule="nonzero"/>
	</g>
</svg>
