<svg width="80.000000" height="80.000000" viewBox="0 0 80 80" fill="none" xmlns="http://www.w3.org/2000/svg" xmlns:xlink="http://www.w3.org/1999/xlink">
	<desc>
			Created with Pixso.
	</desc>
	<defs>
		<clipPath id="clip1_704">
			<rect id="Icon" width="80.000000" height="80.000000" transform="matrix(1 0 0 -1 0 80)" fill="white" fill-opacity="0"/>
		</clipPath>
	</defs>
	<g clip-path="url(#clip1_704)">
		<path id="Vector" d="M38.93 28.8C39.46 28.8 39.86 28.66 40.13 28.4C40.39 28.13 40.53 27.77 40.53 27.33C40.53 26.88 40.39 26.48 40.13 26.13C39.86 25.77 39.51 25.6 39.06 25.6C38.62 25.6 38.22 25.77 37.86 26.13C37.51 26.48 37.33 26.88 37.33 27.33C37.33 27.77 37.51 28.13 37.86 28.4C38.22 28.66 38.57 28.8 38.93 28.8ZM29.33 28.8C29.68 28.8 30.04 28.66 30.39 28.4C30.75 28.13 30.93 27.77 30.93 27.33C30.93 26.88 30.75 26.48 30.39 26.13C30.04 25.77 29.68 25.6 29.33 25.6C28.97 25.6 28.62 25.77 28.26 26.13C27.91 26.48 27.73 26.88 27.73 27.33C27.73 27.77 27.91 28.13 28.26 28.4C28.62 28.66 28.97 28.8 29.33 28.8ZM71.46 32.26C71.11 32.26 70.8 32.4 70.53 32.66C70.26 32.93 70.13 33.28 70.13 33.73C70.13 34.17 70.26 34.57 70.53 34.93C70.8 35.28 71.11 35.46 71.46 35.46C73.06 35.46 74.35 35.95 75.33 36.93C76.31 37.91 76.8 39.11 76.8 40.53L76.8 64C76.8 65.6 76.31 66.88 75.33 67.86C74.35 68.84 73.06 69.33 71.46 69.33L34.93 69.33C33.51 69.33 32.26 68.84 31.2 67.86C30.13 66.88 29.6 65.6 29.6 64L29.6 40.53C29.6 39.11 30.13 37.91 31.2 36.93C32.26 35.95 33.51 35.46 34.93 35.46L57.6 35.46C57.95 35.46 58.26 35.28 58.53 34.93C58.8 34.57 58.93 34.17 58.93 33.73C58.93 33.28 58.8 32.93 58.53 32.66C58.26 32.4 57.95 32.26 57.6 32.26L47.73 32.26C47.91 31.2 48 30.13 48 29.06L48 22.4L50.13 22.4C50.48 22.4 50.84 22.26 51.2 22C51.55 21.73 51.73 21.42 51.73 21.06L51.73 15.46C51.73 12.62 51.02 10.04 49.6 7.73C48.17 5.42 46.26 3.55 43.86 2.13C41.46 0.71 38.84 0 36 0C33.86 0 31.91 0.57 30.13 1.73C28.35 2.88 27.02 4.44 26.13 6.39C23.46 6.57 21.28 7.6 19.6 9.46C17.91 11.33 17.06 13.51 17.06 16L17.06 20.53C17.06 21.24 17.37 21.68 18 21.86C18.62 22.04 19.28 22.22 20 22.4L20 29.06C20 31.37 20.57 33.59 21.73 35.73C22.88 37.86 24.44 39.55 26.39 40.8L26.39 41.86L24.53 41.86C20.08 41.86 16 42.97 12.26 45.2C8.53 47.42 5.55 50.4 3.33 54.13C1.11 57.86 0 62.04 0 66.66L0 70.66C0 73.15 0.93 75.33 2.8 77.19C4.66 79.06 6.84 80 9.33 80L67.19 80C67.73 80 68.13 79.86 68.39 79.6C68.66 79.33 68.8 78.97 68.8 78.53C68.8 78.08 68.66 77.68 68.39 77.33C68.13 76.97 67.73 76.8 67.19 76.8L65.86 76.8C66.93 75.55 67.64 74.13 68 72.53L71.46 72.53C73.95 72.53 76 71.68 77.6 70C79.19 68.31 80 66.31 80 64L80 40.53C80 38.22 79.19 36.26 77.6 34.66C76 33.06 73.95 32.26 71.46 32.26ZM47.2 72.53L47.2 76.8L38.13 76.8L38.13 76C38.13 74.75 37.77 73.6 37.06 72.53L47.2 72.53ZM36 3.2C39.55 3.2 42.53 4.39 44.93 6.79C47.33 9.2 48.53 12.08 48.53 15.46L48.53 19.46L36 19.46C33.86 19.46 32 18.66 30.39 17.06C28.8 15.46 28 13.55 28 11.33C28 9.11 28.8 7.19 30.39 5.59C32 4 33.86 3.2 36 3.2ZM20 16C20 14.57 20.48 13.24 21.46 12C22.44 10.75 23.64 9.95 25.06 9.59L24.8 11.2C24.8 13.51 25.42 15.64 26.66 17.6C24.71 19.2 22.48 19.73 20 19.2L20 16ZM23.2 29.06L23.2 22.4C25.33 22.04 27.2 21.15 28.8 19.73C30.93 21.51 33.33 22.4 36 22.4L45.06 22.4L45.06 29.06C45.06 30.13 44.88 31.2 44.53 32.26L34.93 32.26C33.15 32.26 31.55 32.75 30.13 33.73C28.71 34.71 27.73 35.91 27.2 37.33C25.95 36.44 24.97 35.24 24.26 33.73C23.55 32.22 23.2 30.66 23.2 29.06ZM9.33 76.8C7.55 76.8 6.08 76.22 4.93 75.06C3.77 73.91 3.19 72.44 3.19 70.66L3.19 66.66C3.19 62.75 4.13 59.15 6 55.86C7.86 52.57 10.48 49.95 13.86 48C17.24 46.04 20.8 45.06 24.53 45.06L26.39 45.06L26.39 64C26.39 65.06 26.57 66.04 26.93 66.93L15.73 66.93C15.37 66.93 15.02 67.06 14.66 67.33C14.31 67.6 14.13 67.95 14.13 68.4C14.13 68.84 14.31 69.19 14.66 69.46C15.02 69.73 15.37 69.86 15.73 69.86L26.39 69.86L26.39 76.8L9.33 76.8ZM29.6 76.8L29.6 72.53L31.46 72.53C32.35 72.53 33.15 72.88 33.86 73.6C34.57 74.31 34.93 75.11 34.93 76L34.93 76.8L29.6 76.8ZM50.39 72.53L56.26 72.53L56.26 76.8L50.39 76.8L50.39 72.53ZM59.46 76.8L59.46 72.53L64.8 72.53C64.44 73.77 63.77 74.8 62.8 75.6C61.82 76.4 60.71 76.8 59.46 76.8ZM53.33 46.66C51.73 46.66 50.35 47.2 49.2 48.26C48.04 49.33 47.46 50.66 47.46 52.26C47.46 53.86 48.04 55.24 49.2 56.4C50.35 57.55 51.73 58.13 53.33 58.13C54.93 58.13 56.26 57.55 57.33 56.4C58.39 55.24 58.93 53.86 58.93 52.26C58.93 50.66 58.39 49.33 57.33 48.26C56.26 47.2 54.93 46.66 53.33 46.66ZM53.33 54.93C52.44 54.93 51.77 54.71 51.33 54.26C50.88 53.82 50.66 53.2 50.66 52.4C50.66 51.6 50.88 50.93 51.33 50.4C51.77 49.86 52.39 49.6 53.2 49.6C54 49.6 54.66 49.86 55.2 50.4C55.73 50.93 56 51.6 56 52.4C56 53.2 55.73 53.82 55.2 54.26C54.66 54.71 54.04 54.93 53.33 54.93ZM64.53 35.46C64.88 35.46 65.24 35.28 65.6 34.93C65.95 34.57 66.13 34.17 66.13 33.73C66.13 33.28 65.95 32.93 65.6 32.66C65.24 32.4 64.88 32.26 64.53 32.26C64.17 32.26 63.82 32.4 63.46 32.66C63.11 32.93 62.93 33.28 62.93 33.73C62.93 34.17 63.11 34.57 63.46 34.93C63.82 35.28 64.17 35.46 64.53 35.46Z" fill="#FFFFFF" fill-opacity="1.000000" fill-rule="nonzero"/>
	</g>
</svg>
