<svg width="313.000000" height="359.000000" viewBox="0 0 313 359" fill="none" xmlns="http://www.w3.org/2000/svg" xmlns:xlink="http://www.w3.org/1999/xlink">
	<desc>
			Created with Pixso.
	</desc>
	<defs/>
	<g opacity="0.300000">
		<path id="Rectangle 8673" d="M44 153.5C44 91.36 94.36 41 156.5 41C218.63 41 269 91.36 269 153.5L269 359L44 359L44 153.5Z" fill="#D9D9D9" fill-opacity="0" fill-rule="evenodd"/>
		<path id="Rectangle 8673" d="M269 359L44 359L44 153.5C44 91.36 94.36 41 156.5 41C218.63 41 269 91.36 269 153.5L269 359ZM266 356L47 356L47 153.5C47 93.02 96.02 44 156.5 44C216.97 44 266 93.02 266 153.5L266 356Z" fill="#FFFFFF" fill-opacity="1.000000" fill-rule="evenodd"/>
	</g>
	<g opacity="0.300000">
		<path id="Rectangle 8674" d="M0 156.5C0 70.06 70.06 0 156.5 0C242.93 0 313 70.06 313 156.5L313 359L0 359L0 156.5Z" fill="#D9D9D9" fill-opacity="0" fill-rule="evenodd"/>
		<path id="Rectangle 8674" d="M313 359L0 359L0 156.5C0 70.06 70.06 0 156.5 0C242.93 0 313 70.06 313 156.5L313 359ZM310 356L3 356L3 156.5C3 71.72 71.72 3 156.5 3C241.27 3 310 71.72 310 156.5L310 356Z" fill="#FFFFFF" fill-opacity="1.000000" fill-rule="evenodd"/>
	</g>
	<g opacity="0.300000">
		<path id="Rectangle 8675" d="M21 156.5C21 81.66 81.66 21 156.5 21C231.33 21 292 81.66 292 156.5L292 359L21 359L21 156.5Z" fill="#D9D9D9" fill-opacity="0" fill-rule="evenodd"/>
		<path id="Rectangle 8675" d="M292 359L21 359L21 156.5C21 81.66 81.66 21 156.5 21C231.33 21 292 81.66 292 156.5L292 359ZM289 356L24 356L24 156.5C24 83.32 83.32 24 156.5 24C229.67 24 289 83.32 289 156.5L289 356Z" fill="#FFFFFF" fill-opacity="1.000000" fill-rule="evenodd"/>
	</g>
</svg>
