<svg width="9.000000" height="7.000000" viewBox="0 0 9 7" fill="none" xmlns="http://www.w3.org/2000/svg" xmlns:xlink="http://www.w3.org/1999/xlink">
	<desc>
			Created with Pixso.
	</desc>
	<defs/>
	<path id="“" d="M0 7L0 5.15C0 4.59 0.09 4 0.28 3.37C0.48 2.74 0.77 2.13 1.14 1.54C1.52 0.95 1.98 0.43 2.51 0L3.79 1.06C3.37 1.67 3 2.31 2.69 2.98C2.39 3.65 2.23 4.35 2.23 5.11L2.23 7L0 7ZM5.11 7L5.11 5.15C5.11 4.59 5.21 4 5.4 3.37C5.6 2.74 5.88 2.13 6.26 1.54C6.64 0.95 7.09 0.43 7.63 0L8.9 1.06C8.48 1.67 8.12 2.31 7.81 2.98C7.5 3.65 7.35 4.35 7.35 5.11L7.35 7L5.11 7Z" fill="#FFFFFF" fill-opacity="1.000000" fill-rule="nonzero"/>
</svg>
