<svg width="90.000000" height="90.000000" viewBox="0 0 90 90" fill="none" xmlns="http://www.w3.org/2000/svg" xmlns:xlink="http://www.w3.org/1999/xlink">
	<desc>
			Created with Pixso.
	</desc>
	<defs>
		<clipPath id="clip1_734">
			<rect id="Icon" width="40.020000" height="40.000000" transform="matrix(1 0 0 -1 24.99 61.5)" fill="white" fill-opacity="0"/>
		</clipPath>
	</defs>
	<rect id="div.features-box-image" rx="8.000000" width="90.000000" height="90.000000" fill="#FAB437" fill-opacity="1.000000"/>
	<g clip-path="url(#clip1_734)">
		<path id="Vector" d="M60.06 45.9C57.04 44.3 53.26 43.32 48.73 42.96L48.86 41.63C49.31 41.54 49.68 41.3 50 40.9C50.31 40.5 50.46 40.03 50.46 39.5L50.46 33.23C50.46 32.16 50.2 31.21 49.66 30.36C49.13 29.52 48.42 28.87 47.53 28.43C48.42 27.63 48.88 26.67 48.93 25.56C48.97 24.45 48.62 23.5 47.86 22.7C47.11 21.9 46.15 21.5 45 21.5C43.84 21.5 42.91 21.9 42.2 22.7C41.48 23.5 41.13 24.45 41.13 25.56C41.13 26.67 41.57 27.63 42.46 28.43C41.57 28.87 40.86 29.52 40.33 30.36C39.8 31.21 39.53 32.16 39.53 33.23L39.53 39.5C39.53 40.03 39.68 40.5 40 40.9C40.31 41.3 40.68 41.54 41.13 41.63L41.26 42.96C37.17 43.32 33.75 44.12 31 45.36C27.17 47.05 25.17 49.32 25 52.16C25.17 54.38 26.46 56.25 28.86 57.76C30.82 59.01 33.44 59.98 36.73 60.7C39.48 61.23 42.22 61.5 44.93 61.5C47.64 61.5 50.17 61.27 52.53 60.83C54.88 60.38 57 59.76 58.86 58.96C61.35 57.9 63.08 56.56 64.06 54.96C65.04 53.36 65.19 51.74 64.53 50.1C63.86 48.45 62.37 47.05 60.06 45.9ZM41.93 50.43C41.93 51.14 42.15 51.7 42.6 52.1C43.04 52.5 43.57 52.7 44.2 52.7L45.8 52.7C46.42 52.7 46.95 52.5 47.39 52.1C47.84 51.7 48.11 51.14 48.2 50.43L48.33 48.03C50.64 48.3 52.48 48.76 53.86 49.43C55.24 50.1 55.93 50.78 55.93 51.5C55.75 52.3 54.95 53.01 53.53 53.63C52.37 54.16 50.91 54.56 49.13 54.83C47.62 55.01 46.24 55.12 45 55.16C43.75 55.21 42.37 55.1 40.86 54.83C39.08 54.56 37.62 54.16 36.46 53.63C35.04 53.01 34.24 52.3 34.06 51.5C34.06 50.78 34.77 50.1 36.2 49.43C37.62 48.76 39.44 48.3 41.66 48.03L41.93 50.43ZM42.73 25.36C42.73 24.74 42.95 24.21 43.39 23.76C43.84 23.32 44.37 23.1 45 23.1C45.97 23.1 46.66 23.47 47.06 24.23C47.46 24.98 47.46 25.74 47.06 26.5C46.66 27.25 45.97 27.67 45 27.76C44.37 27.76 43.84 27.54 43.39 27.1C42.95 26.65 42.73 26.07 42.73 25.36ZM41.13 39.5L41.13 33.23C41.13 31.98 41.53 31.03 42.33 30.36C43.13 29.7 44.04 29.36 45.06 29.36C46.08 29.36 46.97 29.7 47.73 30.36C48.48 31.03 48.86 31.98 48.86 33.23L48.86 39.5C48.86 39.67 48.8 39.85 48.66 40.03C48.53 40.21 48.35 40.3 48.13 40.3C47.91 40.3 47.73 40.36 47.6 40.5C47.46 40.63 47.39 40.78 47.39 40.96L46.6 50.3C46.6 50.56 46.51 50.78 46.33 50.96C46.15 51.14 45.97 51.23 45.8 51.23L44.2 51.23C44.02 51.23 43.86 51.14 43.73 50.96C43.6 50.78 43.48 50.56 43.39 50.3L42.73 40.96C42.64 40.78 42.53 40.63 42.39 40.5C42.26 40.36 42.08 40.3 41.86 40.3C41.64 40.3 41.46 40.21 41.33 40.03C41.2 39.85 41.13 39.67 41.13 39.5ZM58.33 57.5C56.02 58.56 53.22 59.27 49.93 59.63C46.64 59.98 43.35 59.98 40.06 59.63C36.77 59.27 34.02 58.56 31.8 57.5C30.11 56.78 28.82 55.96 27.93 55.03C27.04 54.1 26.6 53.14 26.6 52.16C26.77 49.85 28.64 47.98 32.2 46.56C34.86 45.5 37.93 44.78 41.39 44.43L41.53 46.43C39.13 46.78 37.15 47.34 35.6 48.1C34.04 48.85 33.08 49.7 32.73 50.63C32.37 51.56 32.55 52.45 33.26 53.3C33.97 54.14 35.04 54.83 36.46 55.36C38.68 56.25 41.53 56.7 45 56.7C48.46 56.7 51.31 56.25 53.53 55.36C55.04 54.83 56.13 54.14 56.8 53.3C57.46 52.45 57.64 51.56 57.33 50.63C57.02 49.7 56.08 48.85 54.53 48.1C52.97 47.34 50.95 46.78 48.46 46.43L48.6 44.43C52.95 44.87 56.55 45.81 59.39 47.23C61.35 48.3 62.6 49.45 63.13 50.7C63.66 51.94 63.51 53.16 62.66 54.36C61.82 55.56 60.37 56.61 58.33 57.5Z" fill="#FFFFFF" fill-opacity="1.000000" fill-rule="nonzero"/>
	</g>
</svg>
