<svg width="359.000000" height="314.000000" viewBox="0 0 359 314" fill="none" xmlns="http://www.w3.org/2000/svg" xmlns:xlink="http://www.w3.org/1999/xlink">
	<desc>
			Created with Pixso.
	</desc>
	<defs/>
	<g opacity="0.200000">
		<path id="Rectangle 8680" d="M205.5 44C267.63 44 318 94.36 318 156.5C318 218.63 267.63 269 205.5 269L0 269L0 44L205.5 44Z" fill="#D9D9D9" fill-opacity="0" fill-rule="evenodd"/>
		<path id="Rectangle 8680" d="M0 269L0 44L205.5 44C267.63 44 318 94.36 318 156.5C318 218.63 267.63 269 205.5 269L0 269ZM3 266L3 47L205.5 47C265.97 47 315 96.02 315 156.5C315 216.97 265.97 266 205.5 266L3 266Z" fill="#FFFFFF" fill-opacity="1.000000" fill-rule="evenodd"/>
	</g>
	<g opacity="0.200000">
		<path id="Rectangle 8681" d="M202.5 0C288.93 0 359 70.06 359 156.5C359 242.93 288.93 313 202.5 313L0 313L0 0L202.5 0Z" fill="#D9D9D9" fill-opacity="0" fill-rule="evenodd"/>
		<path id="Rectangle 8681" d="M0 313L0 0L202.5 0C288.93 0 359 70.06 359 156.5C359 242.93 288.93 313 202.5 313L0 313ZM3 310L3 3L202.5 3C287.27 3 356 71.72 356 156.5C356 241.27 287.27 310 202.5 310L3 310Z" fill="#FFFFFF" fill-opacity="1.000000" fill-rule="evenodd"/>
	</g>
	<g opacity="0.200000">
		<path id="Rectangle 8682" d="M202.5 21C277.33 21 338 81.66 338 156.5C338 231.33 277.33 292 202.5 292L0 292L0 21L202.5 21Z" fill="#D9D9D9" fill-opacity="0" fill-rule="evenodd"/>
		<path id="Rectangle 8682" d="M0 292L0 21L202.5 21C277.33 21 338 81.66 338 156.5C338 231.33 277.33 292 202.5 292L0 292ZM3 289L3 24L202.5 24C275.67 24 335 83.32 335 156.5C335 229.67 275.67 289 202.5 289L3 289Z" fill="#FFFFFF" fill-opacity="1.000000" fill-rule="evenodd"/>
	</g>
</svg>
