<svg width="90.000000" height="90.000000" viewBox="0 0 90 90" fill="none" xmlns="http://www.w3.org/2000/svg" xmlns:xlink="http://www.w3.org/1999/xlink">
	<desc>
			Created with Pixso.
	</desc>
	<defs>
		<clipPath id="clip1_723">
			<rect id="Icon" width="40.020000" height="40.000000" transform="matrix(1 0 0 -1 24.9902 61.5)" fill="white" fill-opacity="0"/>
		</clipPath>
	</defs>
	<rect id="div.features-box-image" rx="8.000000" width="90.000000" height="90.000000" fill="#DF385B" fill-opacity="1.000000"/>
	<g clip-path="url(#clip1_723)">
		<path id="Vector" d="M62.6 24.29L48.2 24.29C47.57 24.29 47.02 24.52 46.53 24.96C46.04 25.41 45.79 25.98 45.79 26.69L45.79 35.36L36.46 37.89L27.66 37.89C26.95 37.89 26.33 38.16 25.79 38.69C25.26 39.23 25 39.85 25 40.56L25 46.16C25 46.87 25.26 47.47 25.79 47.96C26.33 48.45 26.95 48.69 27.66 48.69L28.86 48.69L29.79 56.43C29.97 57.41 30.51 58.07 31.39 58.43C31.84 58.61 32.33 58.67 32.86 58.63C33.39 58.58 33.84 58.43 34.2 58.16C35 57.54 35.31 56.69 35.13 55.63L34.2 48.69L36.46 48.69L56.06 54.29C56.33 54.29 56.57 54.23 56.79 54.09C57.02 53.96 57.13 53.76 57.13 53.49L57.13 38.43L62.6 38.43C63.31 38.43 63.88 38.18 64.33 37.69C64.77 37.21 65 36.65 65 36.03L65 26.69C65 25.98 64.77 25.41 64.33 24.96C63.88 24.52 63.31 24.29 62.6 24.29ZM26.6 46.16L26.6 40.56C26.6 40.29 26.68 40.05 26.86 39.83C27.04 39.61 27.31 39.49 27.66 39.49L35.79 39.49L35.79 47.23L27.66 47.23C27.31 47.23 27.04 47.12 26.86 46.89C26.68 46.67 26.6 46.43 26.6 46.16ZM33.66 55.89C33.66 56.34 33.51 56.67 33.2 56.89C32.88 57.12 32.51 57.16 32.06 57.03C31.62 56.89 31.39 56.61 31.39 56.16L30.46 48.69L32.73 48.69L33.66 55.89ZM55.53 52.43L37.39 47.36L37.39 39.36L46.06 36.83C46.24 37.27 46.53 37.65 46.93 37.96C47.33 38.27 47.75 38.43 48.2 38.43L50.2 38.43L51.53 39.76C51.71 39.85 51.91 39.89 52.13 39.89C52.35 39.89 52.51 39.85 52.6 39.76L53.93 38.43L55.53 38.43L55.53 52.43ZM63.39 36.03C63.39 36.21 63.33 36.38 63.2 36.56C63.06 36.74 62.86 36.83 62.6 36.83L53.66 36.83C53.48 36.83 53.31 36.92 53.13 37.09L52.06 38.03L51.13 37.09C50.95 36.92 50.77 36.83 50.6 36.83L48.2 36.83C48.02 36.83 47.84 36.74 47.66 36.56C47.48 36.38 47.39 36.21 47.39 36.03L47.39 26.69C47.39 26.43 47.48 26.23 47.66 26.09C47.84 25.96 48.02 25.89 48.2 25.89L62.6 25.89C62.86 25.89 63.06 25.96 63.2 26.09C63.33 26.23 63.39 26.43 63.39 26.69L63.39 36.03ZM60.06 27.49L50.73 27.49C50.37 27.49 50.13 27.61 50 27.83C49.86 28.05 49.86 28.29 50 28.56C50.13 28.83 50.37 28.96 50.73 28.96L60.06 28.96C60.42 28.96 60.66 28.83 60.79 28.56C60.93 28.29 60.93 28.05 60.79 27.83C60.66 27.61 60.42 27.49 60.06 27.49ZM60.06 30.56L50.73 30.56C50.37 30.56 50.13 30.69 50 30.96C49.86 31.23 49.86 31.49 50 31.76C50.13 32.03 50.37 32.16 50.73 32.16L60.06 32.16C60.42 32.16 60.66 32.03 60.79 31.76C60.93 31.49 60.93 31.23 60.79 30.96C60.66 30.69 60.42 30.56 60.06 30.56ZM55.39 33.63L50.73 33.63C50.37 33.72 50.13 33.87 50 34.09C49.86 34.32 49.86 34.56 50 34.83C50.13 35.09 50.37 35.23 50.73 35.23L55.39 35.23C55.75 35.23 56 35.09 56.13 34.83C56.26 34.56 56.26 34.32 56.13 34.09C56 33.87 55.75 33.72 55.39 33.63Z" fill="#FFFFFF" fill-opacity="1.000000" fill-rule="nonzero"/>
	</g>
</svg>
