<svg width="90.000000" height="90.000000" viewBox="0 0 90 90" fill="none" xmlns="http://www.w3.org/2000/svg" xmlns:xlink="http://www.w3.org/1999/xlink">
	<desc>
			Created with Pixso.
	</desc>
	<defs>
		<clipPath id="clip1_740">
			<rect id="Icon" width="40.020000" height="40.000000" transform="matrix(1 0 0 -1 24.99 61.5)" fill="white" fill-opacity="0"/>
		</clipPath>
	</defs>
	<rect id="div.features-box-image" rx="8.000000" width="90.000000" height="90.000000" fill="#2CD182" fill-opacity="1.000000"/>
	<g clip-path="url(#clip1_740)">
		<path id="Vector" d="M64.19 53.63L63.39 53.63L63.39 34.83C63.39 34.03 63.11 33.32 62.53 32.7C61.95 32.07 61.22 31.76 60.33 31.76L51.39 31.76L50.86 30.16L51.66 30.16C51.84 30.16 52.02 30.1 52.2 29.96C52.37 29.83 52.46 29.63 52.46 29.36L52.46 25.5C52.46 25.23 52.37 25.03 52.2 24.9C52.02 24.76 51.84 24.7 51.66 24.7L50.06 24.7L50.06 22.3C50.06 22.12 50 21.96 49.86 21.83C49.73 21.7 49.53 21.63 49.26 21.63L40.73 21.63C40.46 21.63 40.26 21.7 40.13 21.83C40 21.96 39.93 22.12 39.93 22.3L39.93 24.7L38.33 24.7C38.15 24.7 37.97 24.76 37.8 24.9C37.62 25.03 37.53 25.23 37.53 25.5L37.53 29.36C37.53 29.63 37.62 29.83 37.8 29.96C37.97 30.1 38.15 30.16 38.33 30.16L39.13 30.16L38.6 31.76L29.66 31.76C28.77 31.76 28.04 32.07 27.46 32.7C26.88 33.32 26.6 34.03 26.6 34.83L26.6 53.63L25.8 53.63C25.53 53.63 25.33 53.7 25.2 53.83C25.06 53.96 25 54.16 25 54.43L25 58.3C25 59.18 25.31 59.92 25.93 60.5C26.55 61.07 27.26 61.36 28.06 61.36L61.93 61.36C62.73 61.36 63.44 61.07 64.06 60.5C64.68 59.92 65 59.18 65 58.3L65 54.43C65 54.16 64.93 53.96 64.8 53.83C64.66 53.7 64.46 53.63 64.19 53.63ZM60.33 33.23C60.77 33.23 61.15 33.38 61.46 33.7C61.77 34.01 61.93 34.38 61.93 34.83L61.93 53.63L60.33 53.63L60.33 35.63C60.33 35.45 60.24 35.27 60.06 35.09C59.88 34.92 59.71 34.83 59.53 34.83L52.46 34.83L51.93 33.23L60.33 33.23ZM41.53 55.23L48.46 55.23L48.46 56.7L41.53 56.7L41.53 55.23ZM31.26 53.63L31.26 36.43L36.86 36.43L36.46 37.76C36.37 38.03 36.42 38.25 36.6 38.43L43.53 48.16L38.2 48.16C38.02 47.72 37.73 47.34 37.33 47.03C36.93 46.72 36.44 46.56 35.86 46.56C35.28 46.56 34.77 46.78 34.33 47.23C33.88 47.67 33.66 48.23 33.66 48.9C33.66 49.56 33.88 50.12 34.33 50.56C34.77 51.01 35.28 51.23 35.86 51.23C36.44 51.23 36.93 51.1 37.33 50.83C37.73 50.56 38.02 50.21 38.2 49.76L51.8 49.76C51.97 50.21 52.26 50.56 52.66 50.83C53.06 51.1 53.55 51.23 54.13 51.23C54.71 51.23 55.22 51.01 55.66 50.56C56.11 50.12 56.33 49.56 56.33 48.9C56.33 48.23 56.11 47.67 55.66 47.23C55.22 46.78 54.71 46.56 54.13 46.56C53.55 46.56 53.06 46.72 52.66 47.03C52.26 47.34 51.97 47.72 51.8 48.16L46.46 48.16L53.39 38.43C53.57 38.25 53.62 38.03 53.53 37.76L53.13 36.43L58.73 36.43L58.73 53.63L31.26 53.63ZM45 38.03C44.82 38.03 44.64 37.94 44.46 37.76C44.28 37.58 44.2 37.38 44.2 37.16C44.2 36.94 44.28 36.76 44.46 36.63C44.64 36.5 44.82 36.43 45 36.43C45.17 36.43 45.35 36.5 45.53 36.63C45.71 36.76 45.8 36.94 45.8 37.16C45.8 37.38 45.71 37.58 45.53 37.76C45.35 37.94 45.17 38.03 45 38.03ZM36.73 48.96C36.73 49.14 36.66 49.32 36.53 49.5C36.39 49.67 36.22 49.76 36 49.76C35.77 49.76 35.6 49.67 35.46 49.5C35.33 49.32 35.26 49.12 35.26 48.9C35.26 48.67 35.33 48.5 35.46 48.36C35.6 48.23 35.77 48.16 36 48.16C36.22 48.16 36.39 48.23 36.53 48.36C36.66 48.5 36.73 48.7 36.73 48.96ZM53.26 48.96C53.26 48.7 53.33 48.5 53.46 48.36C53.6 48.23 53.77 48.16 54 48.16C54.22 48.16 54.39 48.23 54.53 48.36C54.66 48.5 54.73 48.67 54.73 48.9C54.73 49.12 54.66 49.32 54.53 49.5C54.39 49.67 54.22 49.76 54 49.76C53.77 49.76 53.6 49.67 53.46 49.5C53.33 49.32 53.26 49.14 53.26 48.96ZM41.53 23.1L48.46 23.1L48.46 24.7L41.53 24.7L41.53 23.1ZM39.13 26.3L50.86 26.3L50.86 28.56L39.13 28.56L39.13 26.3ZM49.13 30.16L51.93 37.9L45.8 46.43L45.8 39.36C46.24 39.27 46.62 39.01 46.93 38.56C47.24 38.12 47.39 37.63 47.39 37.09C47.39 36.56 47.15 36.05 46.66 35.56C46.17 35.07 45.62 34.83 45 34.83C44.37 34.83 43.82 35.07 43.33 35.56C42.84 36.05 42.6 36.56 42.6 37.09C42.6 37.63 42.75 38.12 43.06 38.56C43.37 39.01 43.75 39.27 44.2 39.36L44.2 46.43L38.06 37.9L40.86 30.16L49.13 30.16ZM28.06 34.83C28.06 34.38 28.22 34.01 28.53 33.7C28.84 33.38 29.22 33.23 29.66 33.23L38.06 33.23L37.53 34.83L30.46 34.83C30.28 34.83 30.11 34.92 29.93 35.09C29.75 35.27 29.66 35.45 29.66 35.63L29.66 53.63L28.06 53.63L28.06 34.83ZM63.39 58.3C63.39 58.74 63.24 59.12 62.93 59.43C62.62 59.74 62.28 59.9 61.93 59.9L28.06 59.9C27.71 59.9 27.37 59.74 27.06 59.43C26.75 59.12 26.6 58.74 26.6 58.3L26.6 55.23L39.93 55.23L39.93 57.5C39.93 57.76 40 57.96 40.13 58.1C40.26 58.23 40.46 58.3 40.73 58.3L49.26 58.3C49.53 58.3 49.73 58.23 49.86 58.1C50 57.96 50.06 57.76 50.06 57.5L50.06 55.23L63.39 55.23L63.39 58.3Z" fill="#FFFFFF" fill-opacity="1.000000" fill-rule="nonzero"/>
	</g>
</svg>
