<svg width="90.000000" height="90.000000" viewBox="0 0 90 90" fill="none" xmlns="http://www.w3.org/2000/svg" xmlns:xlink="http://www.w3.org/1999/xlink">
	<desc>
			Created with Pixso.
	</desc>
	<defs>
		<clipPath id="clip1_737">
			<rect id="Icon" width="40.020000" height="40.000000" transform="matrix(1 0 0 -1 24.98 61.5)" fill="white" fill-opacity="0"/>
		</clipPath>
	</defs>
	<rect id="div.features-box-image" rx="8.000000" width="90.000000" height="90.000000" fill="#2AAA94" fill-opacity="1.000000"/>
	<g clip-path="url(#clip1_737)">
		<path id="Vector" d="M44.99 41.5C44.9 41.5 44.81 41.5 44.72 41.5L28.85 35.63C28.5 35.45 28.32 35.18 28.32 34.83C28.32 34.47 28.5 34.21 28.85 34.03L39.65 30.03C39.92 29.94 40.14 29.96 40.32 30.1C40.5 30.23 40.63 30.38 40.72 30.56C40.81 30.74 40.81 30.94 40.72 31.16C40.63 31.38 40.5 31.54 40.32 31.63L31.52 34.83L44.99 39.76L58.45 34.83L49.65 31.63C49.47 31.54 49.34 31.38 49.25 31.16C49.16 30.94 49.16 30.74 49.25 30.56C49.34 30.38 49.47 30.23 49.65 30.1C49.83 29.96 50.05 29.94 50.32 30.03L61.12 34.03C61.47 34.21 61.65 34.47 61.65 34.83C61.65 35.18 61.47 35.45 61.12 35.63L45.25 41.5L44.99 41.5ZM44.99 61.5C44.9 61.5 44.81 61.5 44.72 61.5L35.79 58.16C35.61 58.07 35.47 57.94 35.38 57.76C35.3 57.58 35.3 57.38 35.38 57.16C35.47 56.94 35.61 56.78 35.79 56.7C35.96 56.61 36.18 56.56 36.45 56.56L44.99 59.76L53.52 56.56C53.79 56.56 54.01 56.61 54.18 56.7C54.36 56.78 54.5 56.94 54.59 57.16C54.67 57.38 54.67 57.58 54.59 57.76C54.5 57.94 54.36 58.07 54.18 58.16L45.25 61.5L44.99 61.5ZM29.12 51.1C28.94 51.1 28.76 51.01 28.59 50.83C28.41 50.65 28.32 50.47 28.32 50.3L28.32 34.83C28.32 34.56 28.41 34.36 28.59 34.23C28.76 34.09 28.96 34.03 29.18 34.03C29.41 34.03 29.61 34.09 29.79 34.23C29.96 34.36 30.05 34.56 30.05 34.83L30.05 50.3C30.05 50.47 29.96 50.65 29.79 50.83C29.61 51.01 29.38 51.1 29.12 51.1ZM60.85 51.1C60.59 51.1 60.36 51.01 60.18 50.83C60.01 50.65 59.92 50.47 59.92 50.3L59.92 34.83C59.92 34.56 60.01 34.36 60.18 34.23C60.36 34.09 60.56 34.03 60.79 34.03C61.01 34.03 61.21 34.09 61.38 34.23C61.56 34.36 61.65 34.56 61.65 34.83L61.65 50.3C61.65 50.47 61.56 50.65 61.38 50.83C61.21 51.01 61.03 51.1 60.85 51.1ZM44.99 34.83C44.72 34.83 44.52 34.74 44.38 34.56C44.25 34.38 44.18 34.21 44.18 34.03L44.18 27.36C44.18 27.1 44.25 26.87 44.38 26.7C44.52 26.52 44.72 26.45 44.99 26.5C45.25 26.54 45.45 26.63 45.59 26.76C45.72 26.9 45.79 27.1 45.79 27.36L45.79 34.03C45.79 34.21 45.72 34.38 45.59 34.56C45.45 34.74 45.25 34.83 44.99 34.83ZM59.92 57.23C59.65 57.23 59.43 57.14 59.25 56.96L55.25 52.96C55.07 52.78 54.99 52.58 54.99 52.36C54.99 52.14 55.07 51.94 55.25 51.76C55.43 51.58 55.63 51.5 55.85 51.5C56.07 51.5 56.27 51.58 56.45 51.76L60.45 55.76C60.63 55.94 60.72 56.14 60.72 56.36C60.72 56.58 60.63 56.78 60.45 56.96C60.27 57.14 60.1 57.23 59.92 57.23ZM30.05 57.23C29.87 57.23 29.7 57.14 29.52 56.96C29.34 56.78 29.25 56.58 29.25 56.36C29.25 56.14 29.34 55.94 29.52 55.76L33.52 51.76C33.7 51.58 33.9 51.5 34.12 51.5C34.34 51.5 34.54 51.58 34.72 51.76C34.9 51.94 34.99 52.14 34.99 52.36C34.99 52.58 34.9 52.78 34.72 52.96L30.72 56.96C30.54 57.14 30.32 57.23 30.05 57.23ZM44.99 61.5C44.72 61.5 44.52 61.41 44.38 61.23C44.25 61.05 44.18 60.87 44.18 60.7L44.18 40.7C44.18 40.43 44.25 40.21 44.38 40.03C44.52 39.85 44.72 39.76 44.99 39.76C45.25 39.76 45.45 39.85 45.59 40.03C45.72 40.21 45.79 40.43 45.79 40.7L45.79 60.7C45.79 60.87 45.72 61.05 45.59 61.23C45.45 61.41 45.25 61.5 44.99 61.5ZM44.99 28.16C44.1 28.16 43.32 27.83 42.65 27.16C41.99 26.5 41.65 25.72 41.65 24.83C41.65 23.94 41.99 23.16 42.65 22.5C43.32 21.83 44.1 21.5 44.99 21.5C45.87 21.5 46.65 21.83 47.32 22.5C47.99 23.16 48.32 23.94 48.32 24.83C48.32 25.72 47.99 26.5 47.32 27.16C46.65 27.83 45.87 28.16 44.99 28.16ZM44.99 23.1C44.54 23.1 44.16 23.27 43.85 23.63C43.54 23.98 43.38 24.38 43.38 24.83C43.38 25.27 43.54 25.65 43.85 25.96C44.16 26.27 44.54 26.43 44.99 26.43C45.43 26.43 45.83 26.27 46.18 25.96C46.54 25.65 46.72 25.27 46.72 24.83C46.72 24.38 46.54 23.98 46.18 23.63C45.83 23.27 45.43 23.1 44.99 23.1ZM61.65 61.5C60.76 61.5 59.99 61.16 59.32 60.5C58.65 59.83 58.32 59.05 58.32 58.16C58.32 57.27 58.65 56.5 59.32 55.83C59.99 55.16 60.76 54.83 61.65 54.83C62.54 54.83 63.32 55.16 63.99 55.83C64.65 56.5 64.99 57.27 64.99 58.16C64.99 59.05 64.65 59.83 63.99 60.5C63.32 61.16 62.54 61.5 61.65 61.5ZM61.65 56.43C61.21 56.43 60.81 56.61 60.45 56.96C60.1 57.32 59.94 57.72 59.99 58.16C60.03 58.61 60.21 59.01 60.52 59.36C60.83 59.72 61.21 59.87 61.65 59.83C62.1 59.78 62.5 59.61 62.85 59.3C63.21 58.98 63.38 58.61 63.38 58.16C63.38 57.72 63.21 57.32 62.85 56.96C62.5 56.61 62.1 56.43 61.65 56.43ZM28.32 61.5C27.43 61.5 26.65 61.16 25.99 60.5C25.32 59.83 24.99 59.05 24.99 58.16C24.99 57.27 25.32 56.5 25.99 55.83C26.65 55.16 27.43 54.83 28.32 54.83C29.21 54.83 29.99 55.16 30.65 55.83C31.32 56.5 31.65 57.27 31.65 58.16C31.65 59.05 31.32 59.83 30.65 60.5C29.99 61.16 29.21 61.5 28.32 61.5ZM28.32 56.43C27.87 56.52 27.47 56.72 27.12 57.03C26.76 57.34 26.61 57.72 26.65 58.16C26.7 58.61 26.87 59.01 27.18 59.36C27.5 59.72 27.87 59.87 28.32 59.83C28.76 59.78 29.16 59.61 29.52 59.3C29.87 58.98 30.03 58.61 29.99 58.16C29.94 57.72 29.76 57.32 29.45 56.96C29.14 56.61 28.76 56.43 28.32 56.43Z" fill="#FFFFFF" fill-opacity="1.000000" fill-rule="nonzero"/>
	</g>
</svg>
