<svg width="90.000000" height="90.000000" viewBox="0 0 90 90" fill="none" xmlns="http://www.w3.org/2000/svg" xmlns:xlink="http://www.w3.org/1999/xlink">
	<desc>
			Created with Pixso.
	</desc>
	<defs>
		<clipPath id="clip1_728">
			<rect id="Icon" width="40.020000" height="40.000000" transform="matrix(1 0 0 -1 24.98 61.5)" fill="white" fill-opacity="0"/>
		</clipPath>
	</defs>
	<rect id="div.features-box-image" rx="8.000000" width="90.000000" height="90.000000" fill="#5AB48E" fill-opacity="1.000000"/>
	<g clip-path="url(#clip1_728)">
		<path id="Vector" d="M40.72 49.5C40.63 49.5 40.5 49.45 40.32 49.36L36.05 45.76C35.87 45.58 35.79 45.41 35.79 45.23C35.79 45.05 35.87 44.87 36.05 44.7L40.32 41.1C40.5 41.01 40.67 40.96 40.85 40.96C41.03 40.96 41.16 41.03 41.25 41.16C41.34 41.3 41.39 41.45 41.39 41.63C41.39 41.81 41.34 41.94 41.25 42.03L37.52 45.23L41.25 48.43C41.34 48.52 41.39 48.65 41.39 48.83C41.39 49.01 41.34 49.16 41.25 49.3C41.16 49.43 40.99 49.5 40.72 49.5ZM49.25 49.5C48.99 49.5 48.81 49.43 48.72 49.3C48.63 49.16 48.59 49.01 48.59 48.83C48.59 48.65 48.63 48.52 48.72 48.43L52.45 45.23L48.72 42.03C48.63 41.94 48.59 41.81 48.59 41.63C48.59 41.45 48.63 41.3 48.72 41.16C48.81 41.03 48.94 40.96 49.12 40.96C49.3 40.96 49.47 41.01 49.65 41.1L53.92 44.7C54.1 44.87 54.19 45.05 54.19 45.23C54.19 45.41 54.1 45.58 53.92 45.76L49.65 49.36C49.47 49.45 49.34 49.5 49.25 49.5ZM43.52 52.3C43.43 52.3 43.34 52.27 43.25 52.23C43.16 52.18 43.05 52.1 42.92 51.96C42.79 51.83 42.76 51.67 42.85 51.5L45.52 38.83C45.52 38.65 45.61 38.52 45.79 38.43C45.96 38.34 46.14 38.3 46.32 38.3C46.5 38.3 46.63 38.38 46.72 38.56C46.81 38.74 46.81 38.92 46.72 39.1L44.05 51.76C44.05 52.12 43.87 52.3 43.52 52.3ZM60.59 59.1L29.39 59.1C28.23 59.1 27.21 58.67 26.32 57.83C25.43 56.98 24.99 55.94 24.99 54.7L24.99 28.3C24.99 27.05 25.43 26.01 26.32 25.16C27.21 24.32 28.23 23.9 29.39 23.9L60.59 23.9C61.74 23.9 62.76 24.32 63.65 25.16C64.54 26.01 64.99 27.05 64.99 28.3L64.99 54.7C64.99 55.94 64.54 56.98 63.65 57.83C62.76 58.67 61.74 59.1 60.59 59.1ZM29.39 25.23C28.59 25.23 27.87 25.52 27.25 26.1C26.63 26.67 26.32 27.41 26.32 28.3L26.32 54.7C26.32 55.58 26.63 56.32 27.25 56.9C27.87 57.47 28.59 57.76 29.39 57.76L60.59 57.76C61.39 57.76 62.1 57.47 62.72 56.9C63.34 56.32 63.65 55.58 63.65 54.7L63.65 28.3C63.65 27.41 63.34 26.67 62.72 26.1C62.1 25.52 61.39 25.23 60.59 25.23L29.39 25.23ZM64.32 34.43L25.65 34.43C25.47 34.43 25.32 34.36 25.19 34.23C25.05 34.1 24.99 33.94 24.99 33.76C24.99 33.58 25.05 33.43 25.19 33.3C25.32 33.16 25.47 33.1 25.65 33.1L64.32 33.1C64.5 33.1 64.65 33.16 64.79 33.3C64.92 33.43 64.99 33.58 64.99 33.76C64.99 33.94 64.92 34.1 64.79 34.23C64.65 34.36 64.5 34.43 64.32 34.43ZM36.32 31.23C35.7 31.23 35.19 31.03 34.79 30.63C34.39 30.23 34.19 29.74 34.19 29.16C34.19 28.58 34.39 28.1 34.79 27.7C35.19 27.3 35.67 27.1 36.25 27.1C36.83 27.1 37.32 27.3 37.72 27.7C38.12 28.1 38.32 28.58 38.32 29.16C38.32 29.74 38.12 30.23 37.72 30.63C37.32 31.03 36.85 31.23 36.32 31.23ZM36.32 28.43C36.05 28.43 35.85 28.5 35.72 28.63C35.59 28.76 35.52 28.94 35.52 29.16C35.52 29.38 35.59 29.56 35.72 29.7C35.85 29.83 36.03 29.9 36.25 29.9C36.47 29.9 36.65 29.83 36.79 29.7C36.92 29.56 36.99 29.38 36.99 29.16C36.99 28.94 36.92 28.76 36.79 28.63C36.65 28.5 36.5 28.43 36.32 28.43ZM29.79 31.23C29.25 31.23 28.79 31.03 28.39 30.63C27.99 30.23 27.79 29.74 27.79 29.16C27.79 28.58 27.99 28.1 28.39 27.7C28.79 27.3 29.27 27.1 29.85 27.1C30.43 27.1 30.92 27.3 31.32 27.7C31.72 28.1 31.92 28.58 31.92 29.16C31.92 29.74 31.72 30.23 31.32 30.63C30.92 31.03 30.41 31.23 29.79 31.23ZM29.79 28.43C29.61 28.43 29.45 28.5 29.32 28.63C29.19 28.76 29.12 28.94 29.12 29.16C29.12 29.38 29.19 29.56 29.32 29.7C29.45 29.83 29.63 29.9 29.85 29.9C30.07 29.9 30.25 29.83 30.39 29.7C30.52 29.56 30.59 29.38 30.59 29.16C30.59 28.94 30.52 28.76 30.39 28.63C30.25 28.5 30.05 28.43 29.79 28.43ZM42.72 31.23C42.1 31.23 41.59 31.03 41.19 30.63C40.79 30.23 40.59 29.74 40.59 29.16C40.59 28.58 40.79 28.1 41.19 27.7C41.59 27.3 42.07 27.1 42.65 27.1C43.23 27.1 43.72 27.3 44.12 27.7C44.52 28.1 44.72 28.58 44.72 29.16C44.72 29.74 44.52 30.23 44.12 30.63C43.72 31.03 43.25 31.23 42.72 31.23ZM42.72 28.43C42.45 28.43 42.25 28.5 42.12 28.63C41.99 28.76 41.92 28.94 41.92 29.16C41.92 29.38 41.99 29.58 42.12 29.76C42.25 29.94 42.43 30.03 42.65 30.03C42.87 30.03 43.07 29.94 43.25 29.76C43.43 29.58 43.52 29.38 43.52 29.16C43.52 28.94 43.43 28.76 43.25 28.63C43.07 28.5 42.9 28.43 42.72 28.43Z" fill="#FFFFFF" fill-opacity="1.000000" fill-rule="nonzero"/>
	</g>
</svg>
