<svg width="90.000000" height="90.000000" viewBox="0 0 90 90" fill="none" xmlns="http://www.w3.org/2000/svg" xmlns:xlink="http://www.w3.org/1999/xlink">
	<desc>
			Created with Pixso.
	</desc>
	<defs>
		<clipPath id="clip1_731">
			<rect id="Icon" width="40.020000" height="40.000000" transform="matrix(1 0 0 -1 24.98 61.5)" fill="white" fill-opacity="0"/>
		</clipPath>
	</defs>
	<rect id="div.features-box-image" rx="8.000000" width="90.000000" height="90.000000" fill="#7F56D9" fill-opacity="1.000000"/>
	<g clip-path="url(#clip1_731)">
		<path id="Vector" d="M42.85 50.03C42.67 50.03 42.5 50.12 42.32 50.3C42.14 50.47 42.05 50.67 42.05 50.9C42.05 51.12 42.14 51.3 42.32 51.43C42.5 51.56 42.67 51.63 42.85 51.63C43.03 51.63 43.21 51.56 43.38 51.43C43.56 51.3 43.65 51.12 43.65 50.9C43.65 50.67 43.56 50.47 43.38 50.3C43.21 50.12 43.03 50.03 42.85 50.03ZM56.85 27.36L40.99 27.36L36.05 22.43C35.43 21.81 34.7 21.5 33.85 21.5C33.01 21.5 32.3 21.78 31.72 22.36C31.14 22.94 30.85 23.65 30.85 24.5C30.85 25.34 31.12 26.07 31.65 26.7L32.45 27.36L28.85 27.36C27.79 27.36 26.87 27.76 26.12 28.56C25.36 29.36 24.99 30.3 24.99 31.36L24.99 36.43C24.99 36.7 25.05 36.9 25.18 37.03C25.32 37.16 25.5 37.23 25.72 37.23C25.94 37.23 26.14 37.16 26.32 37.03C26.5 36.9 26.59 36.7 26.59 36.43L26.59 31.36C26.59 30.65 26.81 30.07 27.25 29.63C27.7 29.18 28.23 28.96 28.85 28.96L34.05 28.96L43.92 38.83L43.79 39.63C43.79 41.05 44.27 42.25 45.25 43.23C46.14 44.12 47.1 44.74 48.12 45.1C49.14 45.45 50.41 45.63 51.92 45.63C52.63 45.63 53.38 45.58 54.18 45.5C54.54 45.5 54.76 45.34 54.85 45.03C54.94 44.72 54.9 44.43 54.72 44.16C54.27 43.72 54.01 43.23 53.92 42.7C53.83 42.34 53.83 41.72 53.92 40.83C54.01 39.85 54.01 39.05 53.92 38.43C53.74 37.54 53.32 36.76 52.65 36.09C51.99 35.43 51.27 34.96 50.52 34.7C49.76 34.43 48.94 34.38 48.05 34.56L42.59 28.96L56.85 28.96C57.47 28.96 58.03 29.18 58.52 29.63C59.01 30.07 59.25 30.65 59.25 31.36L59.25 47.36L26.59 47.36L26.59 43.5C26.59 43.32 26.5 43.14 26.32 42.96C26.14 42.78 25.94 42.7 25.72 42.7C25.5 42.7 25.32 42.78 25.18 42.96C25.05 43.14 24.99 43.32 24.99 43.5L24.99 50.43C24.99 51.5 25.36 52.41 26.12 53.16C26.87 53.92 27.79 54.3 28.85 54.3L38.99 54.3L38.99 56.83C37.92 56.83 37.01 57.21 36.25 57.96C35.5 58.72 35.12 59.63 35.12 60.7C35.12 60.96 35.18 61.16 35.32 61.3C35.45 61.43 35.65 61.5 35.92 61.5L49.79 61.5C50.05 61.5 50.25 61.43 50.38 61.3C50.52 61.16 50.59 60.96 50.59 60.7C50.59 59.63 50.21 58.72 49.45 57.96C48.7 57.21 47.79 56.83 46.72 56.83L46.72 54.3L56.85 54.3C57.92 54.3 58.83 53.92 59.59 53.16C60.34 52.41 60.72 51.5 60.72 50.43L60.72 31.36C60.72 30.3 60.34 29.36 59.59 28.56C58.83 27.76 57.92 27.36 56.85 27.36ZM32.85 23.5C33.12 23.23 33.45 23.1 33.85 23.1C34.25 23.1 34.59 23.23 34.85 23.5L42.72 31.36L40.72 33.5L32.85 25.63C32.5 25.27 32.32 24.9 32.32 24.5C32.32 24.1 32.5 23.76 32.85 23.5ZM46.45 42.16C46.72 41.72 47.07 41.34 47.52 41.03C47.96 40.72 48.5 40.52 49.12 40.43C50.45 40.34 51.56 39.81 52.45 38.83C52.45 39.18 52.41 39.81 52.32 40.7C52.32 41.41 52.32 41.98 52.32 42.43C52.32 43.05 52.45 43.63 52.72 44.16C51.3 44.16 50.07 44.01 49.05 43.7C48.03 43.38 47.16 42.87 46.45 42.16ZM51.52 37.09C51.52 37.09 51.56 37.14 51.65 37.23C51.38 37.67 51.01 38.05 50.52 38.36C50.03 38.67 49.52 38.87 48.99 38.96C47.56 38.96 46.41 39.54 45.52 40.7C45.43 40.34 45.38 39.98 45.38 39.63C45.38 38.65 45.74 37.81 46.45 37.09C47.16 36.38 48.01 36.03 48.99 36.03C49.96 36.03 50.81 36.38 51.52 37.09ZM45.25 35.9L44.18 36.96L41.79 34.56L43.92 32.43L46.32 34.96L45.25 35.9ZM48.85 59.9L36.85 59.9C37.03 59.45 37.32 59.1 37.72 58.83C38.12 58.56 38.54 58.43 38.99 58.43L46.72 58.43C47.16 58.43 47.61 58.56 48.05 58.83C48.5 59.1 48.76 59.45 48.85 59.9ZM45.25 56.83L40.45 56.83L40.45 54.3L45.25 54.3L45.25 56.83ZM56.85 52.7L28.85 52.7C28.23 52.7 27.7 52.47 27.25 52.03C26.81 51.58 26.59 51.05 26.59 50.43L26.59 48.96L59.25 48.96L59.25 50.43C59.25 51.05 59.01 51.58 58.52 52.03C58.03 52.47 57.47 52.7 56.85 52.7ZM25.79 40.83C25.96 40.83 26.14 40.74 26.32 40.56C26.5 40.38 26.59 40.18 26.59 39.96C26.59 39.74 26.5 39.56 26.32 39.43C26.14 39.3 25.94 39.23 25.72 39.23C25.5 39.23 25.32 39.3 25.18 39.43C25.05 39.56 24.99 39.74 24.99 39.96C24.99 40.18 25.05 40.38 25.18 40.56C25.32 40.74 25.52 40.83 25.79 40.83Z" fill="#FFFFFF" fill-opacity="1.000000" fill-rule="nonzero"/>
	</g>
</svg>
