<svg width="193.000000" height="60.000000" viewBox="0 0 193 60" fill="none" xmlns="http://www.w3.org/2000/svg" xmlns:xlink="http://www.w3.org/1999/xlink">
	<desc>
			Created with Pixso.
	</desc>
	<defs>
		<clipPath id="clip1_837">
			<rect id="Frame" width="54.285713" height="60.000000" fill="white" fill-opacity="0"/>
		</clipPath>
	</defs>
	<path id="Eduplore" d="M140.03 23.54Q139.5 23.25 138.62 23.25Q137.74 23.25 137.21 23.54Q136.99 23.67 136.86 23.87Q136.69 24.12 136.69 24.49L136.69 25.1Q136.69 25.4 136.82 25.61Q136.95 25.82 137.21 25.94Q137.74 26.2 138.62 26.2Q139.5 26.2 140.03 25.94Q140.31 25.81 140.44 25.59Q140.57 25.39 140.57 25.1L140.57 24.49Q140.57 24.13 140.41 23.88Q140.28 23.68 140.03 23.54ZM89.5 23.55Q87.4 23.42 85.52 23.42Q83.67 23.42 81.57 23.55Q79.47 23.68 77.17 24.08L77.17 41.34Q79.47 41.73 81.58 41.86Q83.69 42 85.57 42Q87.41 42 89.51 41.86Q91.61 41.73 93.89 41.34L93.89 38.24Q92.18 38.72 90.43 38.95Q90.09 38.99 89.74 39.03Q87.64 39.24 85.52 39.24Q83.94 39.24 82.66 39.15Q81.38 39.07 80.19 38.89L80.19 33.99L90.86 33.99L90.86 30.98L80.19 30.98L80.19 26.54Q80.96 26.43 81.71 26.36Q82.45 26.28 83.13 26.25Q83.81 26.21 84.41 26.19Q85.02 26.17 85.52 26.17Q86.55 26.19 87.6 26.24Q88.65 26.28 89.71 26.39Q90.77 26.5 91.82 26.69Q92.37 26.79 92.92 26.92Q93.41 27.04 93.89 27.18L93.89 24.08Q91.61 23.68 89.5 23.55ZM107.23 28.32Q106.05 28.08 104.97 28.08Q103.1 28.08 101.62 28.34Q100.14 28.6 99.12 29.15Q98.09 29.7 97.55 30.54Q97.52 30.59 97.5 30.64Q97.02 31.45 97.02 32.55L97.02 37.53Q97.02 38.62 97.5 39.44Q97.52 39.48 97.55 39.53Q98.09 40.37 99.12 40.92Q100.14 41.47 101.62 41.73Q103.1 42 104.97 42Q106.01 42 107.12 41.92Q108.22 41.84 109.25 41.71Q110.27 41.58 111.17 41.41Q112.07 41.24 112.71 41.04L112.71 23.42L109.52 23.42L109.52 28.96Q108.41 28.57 107.23 28.32ZM119.63 38.1Q119.53 37.86 119.53 37.58L119.53 28.08L116.3 28.32L116.3 38.36Q116.3 38.83 116.47 39.25Q116.53 39.41 116.63 39.57Q116.95 40.12 117.52 40.55Q118.1 40.98 118.88 41.3Q119.66 41.62 120.57 41.82Q121.48 42.03 122.48 42.14Q123.48 42.24 124.51 42.24Q125.09 42.24 125.66 42.21Q126.1 42.18 126.53 42.14Q127.53 42.03 128.44 41.82Q129.35 41.62 130.13 41.3Q130.91 40.98 131.49 40.55Q132.06 40.12 132.39 39.57Q132.51 39.36 132.58 39.13Q132.71 38.77 132.71 38.36L132.71 28.32L129.46 28.08L129.46 37.58Q129.46 37.83 129.37 38.05Q129.28 38.29 129.07 38.49Q128.68 38.87 128.01 39.11Q127.34 39.35 126.43 39.46Q125.53 39.58 124.51 39.58Q123.53 39.58 122.63 39.47Q121.72 39.37 121.03 39.13Q120.34 38.89 119.93 38.52Q119.74 38.33 119.63 38.1ZM140.03 43.83Q140.16 43.37 140.16 42.83L140.16 28.08L137.06 28.08L137.06 42.8Q137.01 43.19 136.83 43.47Q136.65 43.74 136.46 43.91Q136.37 43.99 136.28 44.06Q136.13 44.17 135.96 44.24L137.32 46.63Q138 46.4 138.55 45.99Q138.64 45.92 138.74 45.84Q139.01 45.62 139.26 45.33Q139.51 45.03 139.71 44.66Q139.91 44.29 140.03 43.83ZM154.45 28.14Q153.58 28.08 152.97 28.08Q152.17 28.08 151.24 28.14Q150.31 28.2 149.38 28.35Q148.44 28.51 147.58 28.78Q146.71 29.06 146.05 29.48Q145.39 29.9 144.99 30.5Q144.98 30.51 144.98 30.51Q144.91 30.61 144.86 30.71Q144.57 31.25 144.57 31.94L147.6 32.72Q147.6 32.32 147.77 32.01Q147.81 31.93 147.86 31.86Q148.13 31.5 148.57 31.24Q149 30.98 149.57 30.83Q150.14 30.68 150.76 30.59Q150.95 30.57 151.13 30.55Q151.56 30.5 152 30.48Q152.62 30.45 153.17 30.45Q153.69 30.45 154.3 30.47Q154.9 30.5 155.49 30.58Q156.07 30.67 156.61 30.82Q157.15 30.97 157.56 31.22Q157.98 31.47 158.22 31.83Q158.25 31.87 158.27 31.92Q158.47 32.25 158.47 32.69L158.47 34.67Q157.94 34.34 157.14 34.07Q156.44 33.85 155.38 33.66Q154.33 33.47 152.83 33.47Q151.84 33.47 150.85 33.53Q149.86 33.58 148.94 33.73Q148.03 33.88 147.24 34.12Q146.44 34.37 145.86 34.74Q145.27 35.12 144.93 35.65Q144.89 35.72 144.85 35.79Q144.6 36.28 144.6 36.89L144.6 41.29Q146.91 41.68 149.02 41.84Q151.14 42 153.02 42Q154.91 42 156.45 41.89Q157.99 41.78 159.1 41.64Q160.39 41.49 161.42 41.29L161.42 31.84Q161.42 31.31 161.22 30.87Q161.12 30.65 160.97 30.46Q160.52 29.87 159.78 29.45Q159.04 29.03 158.12 28.77Q157.23 28.52 156.32 28.36Q156.29 28.36 156.26 28.35Q155.32 28.2 154.45 28.14ZM176.01 30.72Q176.09 29.35 176.09 28.08Q175.03 28.1 174.23 28.13Q173.43 28.16 172.79 28.24Q172.15 28.31 171.62 28.43Q171.14 28.53 170.69 28.71Q170.64 28.73 170.59 28.75Q170.1 28.96 169.57 29.26Q169.05 29.56 168.43 29.98Q168.1 29.46 167.68 29.1Q167.26 28.74 166.88 28.51Q166.44 28.24 165.99 28.08L164.69 30.47Q164.92 30.58 165.1 30.73Q165.15 30.77 165.19 30.81Q165.39 30.98 165.56 31.25Q165.74 31.52 165.79 31.91L165.79 42L168.92 42L168.92 31.99Q169.15 31.84 169.44 31.59Q169.73 31.35 170.2 31.11Q170.66 30.87 171.36 30.7Q172.06 30.52 173.14 30.5Q173.14 31.12 173.07 31.67Q173 32.23 172.93 32.64Q172.83 33.13 172.72 33.55L175.68 33.55Q175.92 32.1 176.01 30.72ZM190.02 30.72Q190.11 29.35 190.11 28.08Q189.04 28.1 188.25 28.13Q187.45 28.16 186.8 28.24Q186.16 28.31 185.63 28.43Q185.15 28.53 184.7 28.71Q184.65 28.73 184.61 28.75Q184.11 28.96 183.59 29.26Q183.06 29.56 182.44 29.98Q182.11 29.46 181.69 29.1Q181.27 28.74 180.89 28.51Q180.45 28.24 180 28.08L178.71 30.47Q178.93 30.58 179.12 30.73Q179.16 30.77 179.21 30.81Q179.4 30.98 179.58 31.25Q179.76 31.52 179.8 31.91L179.8 42L182.93 42L182.93 31.99Q183.16 31.84 183.45 31.59Q183.75 31.35 184.21 31.11Q184.67 30.87 185.38 30.7Q186.08 30.52 187.15 30.5Q187.15 31.12 187.09 31.67Q187.02 32.23 186.95 32.64Q186.85 33.13 186.74 33.55L189.69 33.55Q189.94 32.1 190.02 30.72ZM106.85 39.68Q106.34 39.72 105.85 39.72Q104.72 39.72 103.69 39.66Q102.67 39.6 101.9 39.33Q101.2 39.09 100.76 38.61Q100.72 38.56 100.67 38.51Q100.21 37.95 100.21 36.97L100.21 33.38Q100.21 32.73 100.42 32.27Q100.57 31.94 100.79 31.69Q100.89 31.58 101 31.48Q101.37 31.17 101.9 30.98Q102.42 30.79 103.05 30.69Q103.67 30.58 104.38 30.55Q105.1 30.52 105.85 30.52Q106.9 30.52 107.79 30.78Q107.83 30.79 107.87 30.81Q108.71 31.06 109.52 31.45L109.52 39.11Q109.19 39.24 108.75 39.35Q108.32 39.46 107.84 39.54Q107.36 39.63 106.85 39.68ZM157.71 36.49Q158.16 36.75 158.47 37.01L158.47 39.21Q156.94 39.49 155.5 39.58Q154.07 39.68 152.8 39.68Q151.22 39.68 149.92 39.57Q148.63 39.46 147.55 39.29L147.55 37.72Q147.55 37.03 147.89 36.6Q147.93 36.55 147.98 36.5Q148.41 36.06 149.14 35.86Q149.87 35.66 150.84 35.62Q151.81 35.57 152.9 35.57Q154.12 35.57 155.03 35.7Q155.94 35.83 156.6 36.03Q157.26 36.23 157.71 36.49Z" fill="#FFFFFF" fill-opacity="1.000000" fill-rule="evenodd"/>
	<rect id="Frame" width="54.285713" height="60.000000" fill="#FFFFFF" fill-opacity="0"/>
	<g clip-path="url(#clip1_837)">
		<path id="Vector" d="M18.86 48.19C19.98 48.78 21.38 48.35 21.97 47.23C22.56 46.11 22.13 44.72 21.01 44.13C20.09 43.64 18.99 43.85 18.3 44.56L20.17 45.72C20.41 45.85 20.51 46.15 20.38 46.39C20.25 46.64 19.94 46.73 19.7 46.6L17.69 45.71C17.5 46.68 17.94 47.7 18.86 48.19Z" fill="#FFFFFF" fill-opacity="1.000000" fill-rule="nonzero"/>
		<path id="Vector" d="M20.21 46.31C20.29 46.15 20.23 45.97 20.08 45.89C19.93 45.81 19.74 45.87 19.66 46.02C19.59 46.17 19.64 46.36 19.79 46.43C19.94 46.51 20.13 46.45 20.21 46.31Z" fill="#FFFFFF" fill-opacity="1.000000" fill-rule="nonzero"/>
		<path id="Vector" d="M24.46 31.33L1.33 31.33C0.6 31.33 0 31.93 0 32.67L0 44.3C0 45.04 0.52 45.94 1.15 46.31L18.19 56.12L24.64 59.84C25.28 60.21 25.8 59.91 25.8 59.17L25.8 45.11L25.8 32.67C25.8 31.93 25.2 31.33 24.46 31.33ZM23.42 46.43L23.05 46.52C23.02 46.74 22.97 46.97 22.9 47.19L23.19 47.43C23.25 47.47 23.27 47.56 23.23 47.63L23 48.05C22.97 48.12 22.89 48.16 22.82 48.13L22.45 48.03C22.31 48.21 22.16 48.38 21.98 48.53L22.12 48.88C22.14 48.95 22.12 49.04 22.05 49.08L21.65 49.33C21.59 49.37 21.5 49.36 21.44 49.31L21.18 49.03C20.97 49.12 20.75 49.19 20.53 49.23L20.46 49.61C20.45 49.68 20.38 49.74 20.31 49.75L19.83 49.76C19.76 49.77 19.68 49.71 19.66 49.64L19.57 49.27C19.35 49.24 19.12 49.19 18.9 49.12L18.66 49.41C18.62 49.47 18.53 49.49 18.46 49.45L18.03 49.23C17.97 49.19 17.94 49.11 17.96 49.04L18.06 48.68C17.88 48.54 17.71 48.38 17.56 48.21L17.2 48.34C17.14 48.37 17.04 48.34 17.01 48.28L16.75 47.87C16.71 47.81 16.73 47.72 16.78 47.67L17.05 47.41C16.96 47.2 16.9 46.98 16.85 46.76L16.48 46.7C16.4 46.69 16.34 46.62 16.34 46.54L16.32 46.06C16.32 45.99 16.37 45.92 16.44 45.9L16.81 45.81C16.83 45.66 16.86 45.52 16.9 45.37L14.49 44.3C14.23 44.65 13.94 44.96 13.62 45.24L13.87 45.9C13.91 46.03 13.86 46.19 13.75 46.26L12.99 46.74C12.87 46.81 12.7 46.79 12.61 46.69L12.12 46.17C11.73 46.34 11.31 46.47 10.89 46.55L10.78 47.25C10.76 47.38 10.63 47.5 10.49 47.5L9.6 47.54C9.46 47.54 9.32 47.43 9.29 47.3L9.13 46.62C8.71 46.57 8.29 46.47 7.88 46.33L7.43 46.88C7.34 46.98 7.17 47.02 7.05 46.96L6.26 46.54C6.14 46.47 6.07 46.32 6.11 46.18L6.31 45.51C5.96 45.25 5.65 44.95 5.37 44.63L4.71 44.88C4.58 44.93 4.41 44.88 4.34 44.76L3.87 44.01C3.79 43.89 3.82 43.72 3.92 43.63L4.43 43.14C4.26 42.74 4.14 42.34 4.05 41.91L3.35 41.8C3.22 41.78 3.1 41.65 3.1 41.51L3.07 40.62C3.06 40.48 3.17 40.35 3.3 40.32L3.99 40.15C4.03 39.73 4.13 39.31 4.27 38.9L3.72 38.46C3.62 38.37 3.58 38.2 3.65 38.08L4.06 37.29C4.13 37.17 4.29 37.1 4.42 37.14L5.1 37.34C5.36 36.99 5.65 36.68 5.97 36.4L5.72 35.74C5.67 35.61 5.73 35.45 5.84 35.38L6.6 34.9C6.72 34.83 6.89 34.85 6.98 34.95L7.47 35.46C7.86 35.29 8.27 35.17 8.7 35.08L8.81 34.39C8.83 34.25 8.96 34.14 9.1 34.13L9.99 34.1C10.13 34.09 10.26 34.2 10.3 34.33L10.46 35.02C10.88 35.07 11.3 35.16 11.71 35.3L12.16 34.76C12.25 34.65 12.42 34.62 12.54 34.68L13.33 35.1C13.45 35.16 13.52 35.32 13.48 35.45L13.28 36.13C13.63 36.39 13.94 36.68 14.22 37L14.88 36.75C14.96 36.72 15.05 36.74 15.12 36.78C15.17 36.8 15.21 36.83 15.24 36.87L15.72 37.63C15.79 37.75 15.77 37.92 15.67 38.01L15.16 38.5C15.33 38.89 15.45 39.3 15.53 39.72L16.23 39.83C16.37 39.85 16.48 39.98 16.49 40.12L16.52 41.01C16.53 41.15 16.42 41.29 16.29 41.32L15.6 41.48C15.55 41.9 15.46 42.32 15.31 42.73L17.57 44.12C17.67 44.01 17.76 43.89 17.87 43.79L17.74 43.44C17.71 43.37 17.74 43.29 17.8 43.25L18.21 42.99C18.27 42.95 18.36 42.96 18.42 43.01L18.68 43.29C18.89 43.2 19.11 43.13 19.33 43.09L19.4 42.71C19.41 42.64 19.48 42.58 19.55 42.58L20.03 42.56C20.1 42.56 20.18 42.61 20.19 42.68L20.28 43.05C20.51 43.07 20.73 43.12 20.95 43.2L21.19 42.91C21.24 42.85 21.33 42.83 21.39 42.87L21.82 43.09C21.88 43.12 21.92 43.21 21.9 43.28L21.79 43.64C21.98 43.78 22.14 43.94 22.29 44.11L22.65 43.97C22.71 43.95 22.8 43.98 22.84 44.04L23.09 44.44C23.13 44.51 23.12 44.6 23.07 44.65L22.79 44.91C22.89 45.12 22.95 45.34 23 45.57L23.37 45.62C23.44 45.64 23.5 45.71 23.51 45.78L23.53 46.26C23.55 46.34 23.49 46.41 23.42 46.43Z" fill="#FFFFFF" fill-opacity="1.000000" fill-rule="nonzero"/>
		<path id="Vector" d="M24.64 0.15L1.15 13.68C0.52 14.05 0 14.95 0 15.69L0 27.32C0 28.06 0.6 28.66 1.33 28.66L9.54 28.66L24.46 28.66C25.2 28.66 25.8 28.06 25.8 27.32L25.8 25.17L25.8 0.82C25.8 0.09 25.28 -0.22 24.64 0.15ZM17.83 25.81L8.12 25.81C6.83 25.81 5.65 25.3 4.78 24.47L9.93 24.47C10.11 24.71 10.38 24.86 10.68 24.9C10.73 24.91 10.77 24.92 10.82 24.92C10.94 24.92 11.04 24.89 11.15 24.86C11.6 24.72 11.93 24.31 11.93 23.81C11.93 23.19 11.43 22.69 10.82 22.69C10.46 22.69 10.14 22.87 9.93 23.14L3.79 23.14C3.46 22.48 3.27 21.75 3.27 20.97C3.27 20.32 3.4 19.7 3.64 19.13L9.93 19.13C10.13 19.4 10.46 19.57 10.82 19.57C11.44 19.57 11.93 19.08 11.93 18.46C11.93 17.85 11.43 17.35 10.82 17.35C10.46 17.35 10.14 17.53 9.93 17.79L4.47 17.79C5.15 17.01 6.08 16.45 7.13 16.23C8.22 14.12 10.43 12.68 12.97 12.68C15.04 12.68 16.88 13.64 18.09 15.12L13.16 15.12C12.95 14.85 12.63 14.68 12.27 14.68C11.65 14.68 11.16 15.18 11.16 15.79C11.16 16.4 11.65 16.9 12.27 16.9C12.63 16.9 12.95 16.73 13.16 16.46L19.58 16.46C21.24 17.1 22.45 18.63 22.65 20.46L13.16 20.46C12.95 20.2 12.63 20.02 12.27 20.02C11.65 20.02 11.16 20.52 11.16 21.13C11.16 21.75 11.65 22.25 12.27 22.25C12.63 22.25 12.95 22.07 13.16 21.8L22.6 21.8C22.2 24.08 20.22 25.81 17.83 25.81Z" fill="#FFFFFF" fill-opacity="1.000000" fill-rule="nonzero"/>
		<path id="Vector" d="M53.12 13.68L29.64 0.15C29 -0.22 28.48 0.09 28.48 0.82L28.48 27.32C28.48 28.06 29.08 28.66 29.82 28.66L41.7 28.66L52.94 28.66C53.68 28.66 54.28 28.06 54.28 27.32L54.28 27.02L54.28 15.69C54.28 14.95 53.76 14.05 53.12 13.68ZM45.4 15.11L47.62 13.83C47.73 13.77 47.87 13.8 47.94 13.92C48 14.03 47.97 14.17 47.85 14.24L45.64 15.52C45.6 15.54 45.56 15.55 45.52 15.55C45.44 15.55 45.36 15.51 45.31 15.43C45.25 15.32 45.29 15.17 45.4 15.11ZM43.16 13.05L44.44 10.84C44.51 10.73 44.65 10.69 44.76 10.75C44.88 10.82 44.92 10.96 44.85 11.07L43.57 13.28C43.53 13.36 43.45 13.4 43.37 13.4C43.33 13.4 43.29 13.39 43.25 13.37C43.14 13.31 43.1 13.16 43.16 13.05ZM40.2 9.83C40.2 9.7 40.3 9.59 40.43 9.59C40.56 9.59 40.67 9.7 40.67 9.83L40.67 12.38C40.67 12.51 40.56 12.62 40.43 12.62C40.3 12.62 40.2 12.51 40.2 12.38L40.2 9.83ZM36.1 10.75C36.21 10.69 36.35 10.72 36.42 10.84L37.7 13.05C37.76 13.16 37.72 13.31 37.61 13.37C37.57 13.39 37.53 13.4 37.49 13.4C37.41 13.4 37.33 13.36 37.29 13.28L36.01 11.07C35.95 10.96 35.99 10.82 36.1 10.75ZM33.01 14.24C32.9 14.17 32.86 14.03 32.93 13.92C32.99 13.8 33.14 13.77 33.25 13.83L35.47 15.11C35.58 15.17 35.62 15.31 35.55 15.43C35.51 15.5 35.43 15.55 35.35 15.55C35.31 15.55 35.27 15.54 35.23 15.51L33.01 14.24ZM40.52 27.56C40.5 27.56 40.48 27.56 40.46 27.56C39.66 27.56 38.74 27.19 38.74 26.62L39.51 26.62L42.17 26.62C42.17 27.17 41.31 27.54 40.52 27.56ZM42.79 26C42.79 26.16 42.65 26.29 42.48 26.29L39.16 26.29L38.38 26.29C38.21 26.29 38.07 26.16 38.07 26L38.07 25.81C38.07 25.67 38.2 25.55 38.35 25.54C38.36 25.54 38.37 25.53 38.38 25.53L42.48 25.53C42.65 25.53 42.79 25.66 42.79 25.81L42.79 26ZM44.85 20.8C43.6 23.05 43.27 22.6 43.06 23.82C43.02 24.1 42.97 24.32 42.9 24.49C43 24.54 43.06 24.63 43.06 24.73L43.06 24.92C43.06 25.07 42.91 25.2 42.72 25.2L38.14 25.2C38.05 25.2 37.97 25.17 37.91 25.12C37.9 25.12 37.9 25.11 37.9 25.11L37.88 25.09L37.88 25.09C37.83 25.04 37.8 24.98 37.8 24.92L37.8 24.73C37.8 24.63 37.87 24.54 37.96 24.49C37.9 24.32 37.85 24.1 37.8 23.82C37.59 22.6 37.26 23.05 36.01 20.8C35.59 20.04 35.33 19.18 35.33 18.26C35.33 15.44 37.62 13.17 40.43 13.17C42.61 13.17 44.47 14.53 45.2 16.46C45.41 17.02 45.53 17.62 45.53 18.26C45.53 19.18 45.27 20.04 44.85 20.8Z" fill="#FFFFFF" fill-opacity="1.000000" fill-rule="nonzero"/>
		<g opacity="0.200000">
			<path id="Vector" d="M22.6 21.8C22.21 24.08 20.22 25.81 17.83 25.81L8.12 25.81C6.83 25.81 5.65 25.3 4.78 24.47L9.54 28.66L24.46 28.66C25.2 28.66 25.8 28.06 25.8 27.33L25.8 25.17L22.6 21.8L22.6 21.8Z" fill="#FFFFFF" fill-opacity="1.000000" fill-rule="nonzero"/>
		</g>
		<path id="Vector" d="M30.55 39.47L30.55 39.48C30.55 39.48 30.55 39.48 30.55 39.47Z" fill="#FFFFFF" fill-opacity="1.000000" fill-rule="nonzero"/>
		<g opacity="0.200000">
			<path id="Vector" d="M30.55 39.47L30.55 39.48C30.55 39.48 30.55 39.48 30.55 39.47Z" fill="#FFFFFF" fill-opacity="1.000000" fill-rule="nonzero"/>
		</g>
		<path id="Vector" d="M52.94 31.33L29.82 31.33C29.08 31.33 28.48 31.93 28.48 32.67L28.48 59.17C28.48 59.91 29 60.21 29.64 59.84L35.98 56.18L38.91 54.49L44.42 51.32L53.12 46.31C53.22 46.25 53.31 46.18 53.39 46.11C53.9 45.67 54.28 44.93 54.28 44.3L54.28 42.38L54.28 32.67C54.28 31.93 53.68 31.33 52.94 31.33ZM46.4 45.64C46.4 46.69 43.77 47.54 40.52 47.54C37.28 47.54 34.65 46.69 34.65 45.64L34.65 41.59L39.89 42.9C40.1 42.95 40.31 42.98 40.52 42.98C40.74 42.98 40.95 42.95 41.16 42.9L46.4 41.59L46.4 45.64ZM50.11 39.89L49.31 40.09L49.31 45.2C49.51 45.41 49.63 45.72 49.63 46.07C49.63 46.71 49.21 47.24 48.69 47.24C48.17 47.24 47.75 46.72 47.75 46.07C47.75 45.72 47.87 45.41 48.07 45.2L48.07 40.4L46.4 40.81L41.04 42.14C40.87 42.19 40.7 42.21 40.52 42.21C40.35 42.21 40.18 42.19 40.01 42.14L34.65 40.81L30.94 39.89C30.83 39.86 30.76 39.8 30.69 39.73C30.63 39.66 30.58 39.57 30.55 39.48L30.55 39.47C30.46 39.14 30.59 38.72 30.94 38.63L40.01 36.37C40.18 36.33 40.35 36.31 40.52 36.31C40.69 36.31 40.86 36.33 41.03 36.37L50.11 38.63C50.28 38.68 50.4 38.81 50.46 38.97C50.6 39.32 50.48 39.79 50.11 39.89Z" fill="#FFFFFF" fill-opacity="1.000000" fill-rule="nonzero"/>
		<g opacity="0.200000">
			<path id="Vector" d="M50.46 38.97C50.6 39.32 50.48 39.79 50.11 39.89L49.31 40.09L49.31 45.2C49.51 45.41 49.63 45.72 49.63 46.07C49.63 46.71 49.21 47.24 48.69 47.24C48.17 47.24 47.75 46.72 47.75 46.07C47.75 45.72 47.87 45.41 48.07 45.2L48.07 40.4L46.4 40.81L41.04 42.14C40.87 42.19 40.7 42.21 40.52 42.21C40.35 42.21 40.18 42.19 40.01 42.14L34.65 40.81L30.94 39.89C30.83 39.86 30.76 39.8 30.69 39.73L38.91 54.49L44.42 51.32L53.12 46.31C53.22 46.25 53.31 46.18 53.4 46.11L50.47 38.98L50.46 38.98L50.46 38.97ZM46.4 45.64C46.4 46.69 43.77 47.54 40.52 47.54C37.28 47.54 34.65 46.69 34.65 45.64L34.65 41.59L39.89 42.9C40.1 42.95 40.31 42.98 40.52 42.98C40.74 42.98 40.95 42.95 41.16 42.9L46.4 41.59L46.4 45.64Z" fill="#FFFFFF" fill-opacity="1.000000" fill-rule="nonzero"/>
		</g>
		<path id="Vector" d="M9.31 40.55C9.17 40.82 9.27 41.16 9.55 41.3C9.82 41.45 10.15 41.34 10.3 41.07C10.44 40.8 10.33 40.47 10.06 40.32C9.79 40.18 9.46 40.28 9.31 40.55Z" fill="#FFFFFF" fill-opacity="1.000000" fill-rule="nonzero"/>
		<path id="Vector" d="M13.03 43.64L9.21 41.94C8.58 41.61 8.34 40.84 8.67 40.22C9 39.59 9.78 39.36 10.4 39.68L13.96 41.88C14.44 40 13.6 37.97 11.81 37.03C9.71 35.92 7.12 36.72 6.01 38.81C4.9 40.9 5.7 43.5 7.8 44.6C9.59 45.55 11.75 45.09 13.03 43.64Z" fill="#FFFFFF" fill-opacity="1.000000" fill-rule="nonzero"/>
		<g opacity="0.200000">
			<path id="Vector" d="M15.13 36.77C15.18 36.8 15.23 36.82 15.25 36.87L15.73 37.62C15.8 37.74 15.78 37.91 15.68 38L15.17 38.49C15.34 38.88 15.47 39.29 15.54 39.71L16.24 39.83C16.38 39.85 16.49 39.98 16.5 40.11L16.53 41C16.54 41.14 16.43 41.28 16.3 41.31L15.61 41.48C15.56 41.89 15.47 42.31 15.32 42.72L17.58 44.12C17.68 44 17.78 43.88 17.89 43.79L17.75 43.43C17.72 43.37 17.75 43.28 17.81 43.24L18.22 42.98C18.28 42.94 18.38 42.96 18.43 43.01L18.69 43.28C18.9 43.19 19.12 43.12 19.35 43.08L19.41 42.71C19.42 42.63 19.49 42.58 19.56 42.57L20.04 42.55C20.11 42.55 20.19 42.61 20.2 42.68L20.29 43.04C20.52 43.07 20.74 43.12 20.96 43.2L21.2 42.9C21.25 42.85 21.34 42.83 21.41 42.86L21.83 43.09C21.89 43.12 21.93 43.21 21.91 43.27L21.8 43.64C21.99 43.77 22.16 43.93 22.3 44.1L22.66 43.97C22.73 43.94 22.82 43.97 22.85 44.03L23.11 44.44C23.15 44.5 23.13 44.59 23.08 44.64L22.8 44.9C22.9 45.11 22.97 45.33 23.01 45.56L23.38 45.62C23.45 45.63 23.52 45.7 23.52 45.77L23.54 46.25C23.54 46.33 23.48 46.4 23.41 46.42L23.04 46.5C23.02 46.73 22.97 46.95 22.89 47.17L23.18 47.41C23.24 47.46 23.26 47.55 23.22 47.61L23 48.04C22.97 48.1 22.88 48.14 22.81 48.12L22.45 48.01C22.31 48.2 22.15 48.37 21.98 48.52L22.11 48.87C22.14 48.94 22.11 49.02 22.05 49.06L21.64 49.32C21.58 49.36 21.49 49.35 21.44 49.29L21.18 49.02C20.97 49.11 20.75 49.18 20.52 49.22L20.46 49.59C20.45 49.67 20.38 49.73 20.3 49.73L19.82 49.75C19.75 49.75 19.68 49.69 19.66 49.62L19.57 49.26C19.34 49.23 19.12 49.18 18.9 49.1L18.66 49.4C18.61 49.45 18.52 49.47 18.45 49.44L18.03 49.21C17.96 49.18 17.93 49.09 17.95 49.02L18.06 48.66C17.87 48.52 17.7 48.37 17.55 48.19L17.2 48.33C17.13 48.36 17.04 48.33 17 48.26L16.75 47.86C16.71 47.8 16.72 47.7 16.77 47.66L17.05 47.4C16.96 47.19 16.89 46.97 16.84 46.74L16.47 46.68C16.4 46.67 16.33 46.6 16.33 46.53L16.31 46.05C16.31 45.98 16.37 45.9 16.44 45.89L16.81 45.8C16.83 45.65 16.86 45.5 16.9 45.36L14.48 44.29C14.22 44.64 13.93 44.95 13.61 45.22L13.86 45.88C13.91 46.01 13.85 46.18 13.74 46.25L12.98 46.72C12.87 46.8 12.69 46.77 12.6 46.67L12.11 46.16C11.72 46.33 11.31 46.45 10.89 46.54L10.77 47.23C10.75 47.37 10.62 47.49 10.49 47.49L9.59 47.52C9.45 47.53 9.32 47.42 9.29 47.29L9.12 46.6C8.7 46.55 8.28 46.46 7.87 46.32L7.42 46.87C7.34 46.97 7.17 47.01 7.05 46.94L18.18 56.11L24.63 59.83C25.26 60.2 25.79 59.9 25.79 59.16L25.79 45.1L15.12 36.76L15.13 36.77Z" fill="#FFFFFF" fill-opacity="1.000000" fill-rule="nonzero"/>
		</g>
		<g opacity="0.200000">
			<path id="Vector" d="M45.2 16.46C45.41 17.02 45.53 17.62 45.53 18.26C45.53 19.18 45.27 20.04 44.85 20.8C43.6 23.05 43.27 22.6 43.06 23.82C43.02 24.1 42.97 24.32 42.9 24.49C43 24.54 43.06 24.63 43.06 24.73L43.06 24.92C43.06 25.07 42.91 25.2 42.72 25.2L38.14 25.2C38.05 25.2 37.97 25.17 37.91 25.12L38.35 25.54C38.36 25.54 38.37 25.53 38.38 25.53L42.48 25.53C42.66 25.53 42.79 25.66 42.79 25.81L42.79 26C42.79 26.16 42.66 26.29 42.48 26.29L39.16 26.29L39.51 26.62L42.17 26.62C42.17 27.17 41.3 27.54 40.52 27.56L41.7 28.66L52.94 28.66C53.68 28.66 54.28 28.06 54.28 27.32L54.28 27.02L45.2 16.46Z" fill="#FFFFFF" fill-opacity="1.000000" fill-rule="nonzero"/>
		</g>
	</g>
</svg>
